<svg width="4103" height="1125" viewBox="0 0 4103 1125" fill="none" xmlns="http://www.w3.org/2000/svg">
<g clip-path="url(#clip0_428_126)">
<path d="M515.782 761.402C430.136 650.547 297.773 607.6 207.463 730.577C186.853 735.113 180.11 722.806 179.314 716.085V433.176C341.907 257.256 490.06 359.876 543.812 433.176L562.896 464.681L579.117 433.176C712.321 245.159 878.254 354.836 944.569 433.176V716.085C941.134 724.654 929.78 732.257 924.532 734.987C811.651 607.6 705.705 641.737 603.097 761.402C576.402 769.551 566.391 741.58 560.034 734.987C553.99 741.708 535.629 770.475 515.782 761.402Z" fill="#6504BE"/>
<path d="M210.459 668.905V441.446C393.644 273.173 525.945 448.379 545.814 496.907V721.903C405.76 545.436 270.067 619.804 210.459 668.905Z" fill="white"/>
<path d="M912.311 668.905V441.446C730.037 273.173 598.394 448.379 578.624 496.907V721.903C717.981 545.436 852.999 619.804 912.311 668.905Z" fill="white"/>
<path d="M237.152 635.518V418.463C382.584 287.465 527.525 435.894 545.813 478.991V682.584C416.907 525.868 292.015 591.913 237.152 635.518Z" fill="#502C9F"/>
<path d="M885.621 634.818V411.867C732.125 282.368 606.247 419.342 578.629 477.737V681.94C706.838 525.038 831.055 591.161 885.621 634.818Z" fill="#502C9F"/>
<path d="M624.345 213.837C638.762 213.837 653.038 214.679 666.358 216.314C679.677 217.949 691.78 220.346 701.974 223.367C712.169 226.388 720.255 229.975 725.773 233.922C731.29 237.87 734.129 242.101 734.129 246.374C734.129 250.646 731.29 254.877 725.773 258.825C720.255 262.772 712.169 266.359 701.974 269.38C691.78 272.402 679.677 274.798 666.358 276.433C653.038 278.069 638.762 278.91 624.345 278.91L624.345 268.78C634.273 268.78 644.105 268.201 653.278 267.075C662.45 265.949 670.785 264.298 677.805 262.218C684.826 260.137 690.395 257.667 694.194 254.948C697.994 252.23 699.949 249.316 699.949 246.374C699.949 243.431 697.994 240.518 694.194 237.799C690.395 235.08 684.826 232.61 677.805 230.53C670.785 228.449 662.45 226.799 653.278 225.673C644.105 224.547 634.274 223.967 624.345 223.967L624.345 213.837Z" fill="url(#paint0_linear_428_126)"/>
<path d="M478.245 213.837C463.828 213.837 449.552 214.679 436.232 216.314C422.913 217.949 410.81 220.346 400.616 223.367C390.421 226.388 382.334 229.975 376.817 233.922C371.3 237.87 368.46 242.101 368.46 246.374C368.46 250.646 371.3 254.877 376.817 258.825C382.334 262.772 390.421 266.359 400.616 269.38C410.81 272.402 422.913 274.798 436.232 276.433C449.552 278.069 463.828 278.91 478.245 278.91L478.245 268.78C468.316 268.78 458.485 268.201 449.312 267.075C440.14 265.949 431.805 264.298 424.784 262.218C417.764 260.137 412.195 257.667 408.395 254.948C404.596 252.23 402.64 249.316 402.64 246.374C402.64 243.431 404.596 240.518 408.395 237.799C412.195 235.08 417.764 232.61 424.784 230.53C431.805 228.449 440.14 226.799 449.312 225.673C458.485 224.547 468.316 223.967 478.245 223.967L478.245 213.837Z" fill="url(#paint1_linear_428_126)"/>
<path d="M655.621 189.068C675.965 189.068 696.109 190.55 714.904 193.43C733.7 196.31 750.777 200.531 765.163 205.852C779.548 211.173 790.959 217.491 798.744 224.444C806.529 231.396 810.536 238.848 810.536 246.374C810.536 253.899 806.529 261.351 798.744 268.304C790.959 275.257 779.548 281.574 765.163 286.895C750.777 292.217 733.7 296.438 714.904 299.318C696.109 302.198 675.965 303.68 655.621 303.68L655.621 285.838C669.631 285.838 683.504 284.818 696.447 282.834C709.391 280.851 721.152 277.944 731.058 274.279C740.965 270.615 748.823 266.264 754.185 261.476C759.546 256.688 762.305 251.556 762.305 246.374C762.305 241.191 759.546 236.059 754.185 231.271C748.823 226.483 740.965 222.133 731.058 218.468C721.152 214.803 709.391 211.896 696.447 209.913C683.504 207.93 669.631 206.909 655.621 206.909L655.621 189.068Z" fill="url(#paint2_linear_428_126)"/>
<path d="M449.909 189.068C429.565 189.068 409.42 190.55 390.625 193.43C371.83 196.31 354.752 200.531 340.367 205.852C325.981 211.173 314.57 217.491 306.785 224.444C299 231.396 294.993 238.848 294.993 246.374C294.993 253.899 299 261.351 306.785 268.304C314.57 275.257 325.981 281.574 340.367 286.895C354.752 292.217 371.83 296.438 390.625 299.318C409.42 302.198 429.565 303.68 449.909 303.68L449.909 285.838C435.898 285.838 422.026 284.818 409.082 282.834C396.138 280.851 384.378 277.944 374.471 274.279C364.564 270.615 356.706 266.264 351.345 261.476C345.983 256.688 343.224 251.556 343.224 246.374C343.224 241.191 345.983 236.059 351.345 231.271C356.706 226.483 364.564 222.133 374.471 218.468C384.378 214.803 396.138 211.896 409.082 209.913C422.026 207.93 435.898 206.909 449.909 206.909L449.909 189.068Z" fill="url(#paint3_linear_428_126)"/>
<g clip-path="url(#clip1_428_126)">
<rect width="186.822" height="186.822" rx="93.4112" transform="matrix(-0.707107 0.707107 0.707107 0.707107 553.395 114.69)" fill="white"/>
<path d="M327.929 734.136C365.064 783.856 426.511 810.742 489.15 825.904C554.438 841.707 624.527 846.728 686.454 820.653C747.561 794.923 795.062 741.265 830.083 682.589C841.704 657.538 837.439 637.244 830.37 614.32C829.567 611.717 828.724 609.074 827.866 606.384C821.172 585.397 813.579 561.591 817.344 532.323C818.181 525.813 819.668 518.422 821.449 510.49C840.297 426.534 806.067 347.04 759.301 271.575C731.586 226.851 712.31 181.659 705.128 129.412C698.005 77.5926 702.846 19.3317 722.506 -51.7199C721.663 -56.8193 720.895 -61.492 720.191 -65.7692C718.877 -73.7625 717.79 -80.3741 716.864 -85.806C714.009 -79.9434 710.134 -73.5667 704.771 -68.1078C694.846 -58.0064 680.266 -51.4855 659.558 -55.3497C643.088 -58.4228 625.264 -55.2635 606.247 -47.7202C587.23 -40.1766 567.561 -28.4675 547.624 -15.1101C535.534 -7.01037 523.651 1.47978 511.817 9.93481C503.989 15.5277 496.183 21.1053 488.352 26.5442C468.979 40.0001 449.811 52.3477 431.628 60.3964C364.254 90.2206 298.515 135.149 267.58 200.225C253.1 230.687 252.103 263.449 255.563 298.017C257.06 312.976 259.364 328.061 261.704 343.389C262.071 345.789 262.439 348.196 262.804 350.608C265.488 368.327 268.05 386.326 269.158 404.22C272.421 456.93 281.223 506.312 290.652 558.574C293.477 574.232 295.004 590.282 296.286 606.107C296.567 609.582 296.836 613.039 297.104 616.48C298.065 628.825 299.01 640.959 300.441 652.897C304.098 683.402 310.807 711.211 327.929 734.136Z" fill="url(#paint4_linear_428_126)" stroke="url(#paint5_linear_428_126)" stroke-width="15"/>
<path fill-rule="evenodd" clip-rule="evenodd" d="M434.073 557.98C404.087 587.997 535.705 660.489 535.25 702.916C534.798 745.052 591.005 759.743 623.445 786.638C656.082 813.696 680.253 859.569 722.629 858.266C765.871 856.938 802.12 827.253 827.819 792.45C851.763 760.025 884.299 718.418 885.063 679.325C887.406 647.126 862.358 613.21 858.996 571.138C857.494 552.347 864.758 534.207 869.095 515.863C905.339 362.571 693.428 267.331 608.713 254.497C240.508 198.715 236.731 589.574 434.073 557.98Z" fill="url(#paint6_linear_428_126)"/>
<path fill-rule="evenodd" clip-rule="evenodd" d="M434.073 557.98C404.087 587.997 535.705 660.489 535.25 702.916C534.798 745.052 591.005 759.743 623.445 786.638C656.082 813.696 680.253 859.569 722.629 858.266C765.871 856.938 802.12 827.253 827.819 792.45C851.763 760.025 884.299 718.418 885.063 679.325C887.406 647.126 862.358 613.21 858.996 571.138C857.494 552.347 864.758 534.207 869.095 515.863C905.339 362.571 693.428 267.331 608.713 254.497C240.508 198.715 236.731 589.574 434.073 557.98Z" fill="url(#paint7_linear_428_126)" fill-opacity="0.35"/>
<path fill-rule="evenodd" clip-rule="evenodd" d="M373.596 555.557C340.858 582.547 488.682 642.718 484.144 684.903C479.636 726.8 534.167 746.835 563.866 776.729C593.746 806.804 613.388 854.791 655.691 857.576C698.861 860.418 737.8 834.362 766.731 802.196C793.686 772.227 843.954 741.9 848.478 703.062C865.069 654.421 803.762 630.702 829.402 582.408C915.185 420.835 377.178 334.868 314.902 472.408C95.6378 417.168 174.128 568 373.596 555.557Z" fill="url(#paint8_linear_428_126)"/>
<path fill-rule="evenodd" clip-rule="evenodd" d="M373.596 555.557C340.858 582.547 488.682 642.718 484.144 684.903C479.636 726.8 534.167 746.835 563.866 776.729C593.746 806.804 613.388 854.791 655.691 857.576C698.861 860.418 737.8 834.362 766.731 802.196C793.686 772.227 843.954 741.9 848.478 703.062C865.069 654.421 803.762 630.702 829.402 582.408C915.185 420.835 377.178 334.868 314.902 472.408C95.6378 417.168 174.128 568 373.596 555.557Z" fill="url(#paint9_linear_428_126)" fill-opacity="0.35"/>
</g>
<path d="M269.408 426.027C317.144 403.695 433 382.5 501 463.5" stroke="white" stroke-width="12" stroke-linecap="round"/>
<path d="M269.408 459.185C317.203 436.785 405 413 499 497" stroke="white" stroke-width="12" stroke-linecap="round"/>
<path d="M269.408 492.417C317.144 470.02 415.5 449.5 495 534.5" stroke="white" stroke-width="12" stroke-linecap="round"/>
<path d="M269.408 535.771C317.144 513.314 428.91 491.267 494.091 582.737" stroke="white" stroke-width="12" stroke-linecap="round"/>
<path d="M847.801 426.027C800.065 403.695 705.5 372.5 616.5 464.5" stroke="white" stroke-width="12" stroke-linecap="round"/>
<path d="M847.801 459.186C800.124 436.785 698.938 414.565 621.5 500" stroke="white" stroke-width="12" stroke-linecap="round"/>
<path d="M847.801 502.238C800.065 479.841 708.5 453 621 544" stroke="white" stroke-width="12" stroke-linecap="round"/>
<path d="M847.801 542.5C800.065 520.043 704.5 493.5 623.118 589.466" stroke="white" stroke-width="12" stroke-linecap="round"/>
<path d="M885.617 378.859L901.189 390.783L912.312 400.452V441.703H885.617V378.859Z" fill="white"/>
<path d="M237.154 378.859L221.582 390.783L210.459 400.452V441.703H237.154V378.859Z" fill="white"/>
<path d="M545.814 479.521L550.795 495.039C554.36 506.15 570.081 506.15 573.647 495.039L578.627 479.521V722L568.941 688.761C566.982 682.039 557.459 682.039 555.5 688.761L545.814 722V479.521Z" fill="white"/>
<path d="M848.916 67.4144C914.063 105.027 971.163 155.103 1016.96 214.783C1062.75 274.463 1096.34 342.578 1115.81 415.24C1135.28 487.901 1140.25 563.687 1130.43 638.268C1120.61 712.849 1096.2 784.767 1058.59 849.913C1020.97 915.06 970.898 972.16 911.218 1017.95C851.538 1063.75 783.423 1097.34 710.761 1116.81C638.099 1136.28 562.314 1141.25 487.733 1131.43C413.151 1121.61 341.234 1097.2 276.087 1059.58L310.645 999.727C367.931 1032.8 431.171 1054.27 496.754 1062.9C562.337 1071.54 628.978 1067.17 692.872 1050.05C756.767 1032.93 816.664 1003.39 869.143 963.121C921.622 922.853 965.656 872.642 998.73 815.355C1031.8 758.069 1053.27 694.829 1061.91 629.247C1070.54 563.664 1066.17 497.023 1049.05 433.128C1031.93 369.234 1002.39 309.337 962.124 256.858C921.856 204.378 871.645 160.345 814.358 127.27L848.916 67.4144Z" fill="#9503BF"/>
<path d="M848.913 67.4148C783.766 29.8023 711.849 5.38975 637.267 -4.42908C562.686 -14.2479 486.901 -9.28069 414.239 10.189C341.577 29.6586 273.462 63.2494 213.782 109.043C154.102 154.838 104.026 211.938 66.4136 277.085C28.8012 342.231 4.38858 414.149 -5.43024 488.73C-15.2491 563.311 -10.2818 639.097 9.18781 711.758C28.6575 784.42 62.2483 852.535 108.042 912.215C153.836 971.895 210.937 1021.97 276.084 1059.58L310.641 999.728C253.355 966.653 203.144 922.62 162.875 870.14C122.607 817.661 93.0688 757.764 75.9483 693.87C58.8278 629.975 54.4599 563.334 63.094 497.751C71.7282 432.169 93.1952 368.929 126.269 311.643C159.344 254.356 203.378 204.145 255.857 163.877C308.336 123.608 368.233 94.07 432.127 76.9495C496.022 59.829 562.663 55.4611 628.246 64.0952C693.828 72.7293 757.068 94.1964 814.355 127.271L848.913 67.4148Z" fill="#6504BE"/>
<path d="M277.488 804.863V801.25C283.315 801.608 288.117 801.787 291.893 801.787C295.929 801.787 300.307 801.608 305.027 801.25C306.395 804.961 308.185 809.355 310.398 814.434C316.453 828.105 321.808 839.71 326.463 849.248L338.768 822.686C340.721 818.356 342.267 814.808 343.406 812.041C344.578 809.242 345.978 805.645 347.605 801.25C353.79 801.608 358.283 801.787 361.082 801.787C363.491 801.787 367.853 801.608 374.168 801.25V804.863C373.191 805.059 372.459 805.189 371.971 805.254C367.771 805.97 365.33 806.621 364.646 807.207C363.995 807.793 363.572 809.014 363.377 810.869C363.214 812.692 363.133 820.065 363.133 832.988C363.133 849.395 363.149 857.956 363.182 858.672C363.279 861.243 363.458 862.822 363.719 863.408C364.012 863.994 364.37 864.417 364.793 864.678C365.932 865.329 368.325 865.931 371.971 866.484L374.168 866.924V870.537C366.29 870.179 360.285 870 356.15 870C351.886 870 345.587 870.179 337.254 870.537V866.924C342.397 865.98 345.278 865.378 345.896 865.117C346.548 864.824 347.036 864.45 347.361 863.994C347.687 863.538 347.898 862.92 347.996 862.139C348.126 861.357 348.191 858.021 348.191 852.129C348.257 839.336 348.289 829.342 348.289 822.148C348.289 821.465 348.273 819.333 348.24 815.752C346.45 819.463 339.907 833.916 328.611 859.111L323.68 870H319.92C316.242 861.699 307.957 843.503 295.066 815.41C295.001 819.674 294.969 823.288 294.969 826.25C294.969 842.493 295.115 853.236 295.408 858.477C295.571 861.471 295.734 863.148 295.896 863.506C296.124 864.124 296.613 864.629 297.361 865.02C298.11 865.41 300.324 865.915 304.002 866.533C304.458 866.631 305.125 866.761 306.004 866.924V870.537C301.382 870.179 296.922 870 292.625 870C288.296 870 283.364 870.179 277.83 870.537V866.924C282.062 866.175 284.633 865.638 285.545 865.312C286.456 864.987 287.14 864.45 287.596 863.701C288.051 862.952 288.279 861.553 288.279 859.502L288.865 828.447C288.963 823.011 289.012 818.975 289.012 816.338C289.012 812.269 288.8 809.6 288.377 808.33C288.117 807.549 287.612 806.963 286.863 806.572C286.147 806.182 283.787 805.726 279.783 805.205C279.262 805.14 278.497 805.026 277.488 804.863ZM391.111 799.443C393.292 799.443 395.148 800.225 396.678 801.787C398.24 803.317 399.021 805.173 399.021 807.354C399.021 809.535 398.24 811.406 396.678 812.969C395.148 814.499 393.292 815.264 391.111 815.264C388.93 815.264 387.059 814.499 385.496 812.969C383.966 811.406 383.201 809.535 383.201 807.354C383.201 805.173 383.966 803.317 385.496 801.787C387.026 800.225 388.898 799.443 391.111 799.443ZM376.951 832.256V828.74C384.34 827.438 390.721 825.176 396.092 821.953L398.582 823.271C398.126 827.21 397.833 830.726 397.703 833.818C397.475 838.408 397.361 845.667 397.361 855.596C397.361 859.762 397.508 862.415 397.801 863.555C397.996 864.303 398.37 864.873 398.924 865.264C399.51 865.622 401.463 866.24 404.783 867.119V870.537C400.258 870.179 396.124 870 392.381 870C388.8 870 383.576 870.179 376.707 870.537V867.119L377.977 866.826C380.841 866.175 382.534 865.622 383.055 865.166C383.576 864.678 383.901 863.831 384.031 862.627C384.324 859.535 384.471 853.154 384.471 843.486C384.471 837.887 384.324 834.632 384.031 833.721C383.641 832.516 382.713 831.914 381.248 831.914C379.979 831.914 378.546 832.028 376.951 832.256ZM407.469 832.646V829.131C411.766 828.219 415.33 827.259 418.162 826.25C421.027 825.241 423.859 823.955 426.658 822.393L429.197 823.857C428.742 826.331 428.432 829.033 428.27 831.963C431.883 827.861 434.601 825.29 436.424 824.248C438.247 823.174 440.395 822.637 442.869 822.637C445.311 822.637 447.41 823.109 449.168 824.053C450.958 824.997 452.277 826.201 453.123 827.666C454.002 829.098 454.572 831.035 454.832 833.477C454.995 835.007 455.076 838.685 455.076 844.512L455.027 853.203C455.027 858.802 455.092 862.106 455.223 863.115C455.353 864.092 455.662 864.808 456.15 865.264C456.671 865.687 458.12 866.159 460.496 866.68C460.887 866.777 461.505 866.924 462.352 867.119V870.537C456.915 870.179 452.7 870 449.705 870C446.678 870 442.218 870.179 436.326 870.537V867.119C438.833 866.501 440.363 865.947 440.916 865.459C441.469 864.938 441.811 864.092 441.941 862.92C442.137 861.292 442.234 855.905 442.234 846.758C442.234 840.28 441.958 836.374 441.404 835.039C440.493 832.923 438.784 831.865 436.277 831.865C434.454 831.865 432.778 832.516 431.248 833.818C429.751 835.12 428.79 836.781 428.367 838.799C427.944 840.817 427.732 845.26 427.732 852.129C427.732 858.281 427.863 862.106 428.123 863.604C428.253 864.417 428.546 865.02 429.002 865.41C429.458 865.768 430.988 866.338 433.592 867.119V870.537C428.644 870.179 424.51 870 421.189 870C418.097 870 413.523 870.179 407.469 870.537V867.119C411.049 866.175 413.068 865.492 413.523 865.068C414.012 864.645 414.337 863.669 414.5 862.139C414.793 858.623 414.939 854.066 414.939 848.467C414.939 839.906 414.842 835.202 414.646 834.355C414.256 832.923 413.263 832.207 411.668 832.207C410.659 832.207 409.259 832.354 407.469 832.646ZM478.709 799.443C480.89 799.443 482.745 800.225 484.275 801.787C485.838 803.317 486.619 805.173 486.619 807.354C486.619 809.535 485.838 811.406 484.275 812.969C482.745 814.499 480.89 815.264 478.709 815.264C476.528 815.264 474.656 814.499 473.094 812.969C471.564 811.406 470.799 809.535 470.799 807.354C470.799 805.173 471.564 803.317 473.094 801.787C474.624 800.225 476.495 799.443 478.709 799.443ZM464.549 832.256V828.74C471.938 827.438 478.318 825.176 483.689 821.953L486.18 823.271C485.724 827.21 485.431 830.726 485.301 833.818C485.073 838.408 484.959 845.667 484.959 855.596C484.959 859.762 485.105 862.415 485.398 863.555C485.594 864.303 485.968 864.873 486.521 865.264C487.107 865.622 489.061 866.24 492.381 867.119V870.537C487.856 870.179 483.722 870 479.979 870C476.398 870 471.173 870.179 464.305 870.537V867.119L465.574 866.826C468.439 866.175 470.132 865.622 470.652 865.166C471.173 864.678 471.499 863.831 471.629 862.627C471.922 859.535 472.068 853.154 472.068 843.486C472.068 837.887 471.922 834.632 471.629 833.721C471.238 832.516 470.311 831.914 468.846 831.914C467.576 831.914 466.144 832.028 464.549 832.256ZM520.018 804.863V801.25C528.351 801.608 534.845 801.787 539.5 801.787C544.253 801.787 550.584 801.608 558.494 801.25V804.863C551.788 805.872 548.143 806.523 547.557 806.816C546.58 807.37 546.092 808.786 546.092 811.064L545.945 823.613V864.238H563.719C566.648 864.238 568.602 864.043 569.578 863.652C570.913 863.099 572.199 862.106 573.436 860.674C574.673 859.242 576.854 855.921 579.979 850.713H584.373C582.192 856.735 580.06 863.343 577.977 870.537C564.142 870.179 552.635 870 543.455 870C535.936 870 528.123 870.179 520.018 870.537V866.924C525.812 865.785 529.002 865.003 529.588 864.58C530.174 864.157 530.532 863.376 530.662 862.236C530.825 861.064 530.906 853.252 530.906 838.799L530.857 821.025V817.9C530.857 812.692 530.678 809.567 530.32 808.525C530.06 807.744 529.604 807.207 528.953 806.914C528.335 806.589 525.356 805.905 520.018 804.863ZM602.244 799.443C604.425 799.443 606.281 800.225 607.811 801.787C609.373 803.317 610.154 805.173 610.154 807.354C610.154 809.535 609.373 811.406 607.811 812.969C606.281 814.499 604.425 815.264 602.244 815.264C600.063 815.264 598.191 814.499 596.629 812.969C595.099 811.406 594.334 809.535 594.334 807.354C594.334 805.173 595.099 803.317 596.629 801.787C598.159 800.225 600.031 799.443 602.244 799.443ZM588.084 832.256V828.74C595.473 827.438 601.854 825.176 607.225 821.953L609.715 823.271C609.259 827.21 608.966 830.726 608.836 833.818C608.608 838.408 608.494 845.667 608.494 855.596C608.494 859.762 608.641 862.415 608.934 863.555C609.129 864.303 609.503 864.873 610.057 865.264C610.643 865.622 612.596 866.24 615.916 867.119V870.537C611.391 870.179 607.257 870 603.514 870C599.933 870 594.708 870.179 587.84 870.537V867.119L589.109 866.826C591.974 866.175 593.667 865.622 594.188 865.166C594.708 864.678 595.034 863.831 595.164 862.627C595.457 859.535 595.604 853.154 595.604 843.486C595.604 837.887 595.457 834.632 595.164 833.721C594.773 832.516 593.846 831.914 592.381 831.914C591.111 831.914 589.679 832.028 588.084 832.256ZM615.916 809.111V805.693C622.329 804.294 628.758 801.982 635.203 798.76L637.596 800.273C636.717 806.361 636.277 815.182 636.277 826.738C636.277 827.812 636.294 829.391 636.326 831.475C640.363 827.536 643.309 825.062 645.164 824.053C647.02 823.011 649.005 822.49 651.121 822.49C655.255 822.49 658.755 824.183 661.619 827.568C664.484 830.954 665.916 835.983 665.916 842.656C665.916 851.217 663.182 858.2 657.713 863.604C652.244 869.007 645.213 871.709 636.619 871.709C632.42 871.709 627.928 870.765 623.143 868.877C623.436 859.73 623.582 848.418 623.582 834.941C623.582 819.902 623.484 811.976 623.289 811.162C622.964 809.567 621.906 808.77 620.115 808.77C619.301 808.77 617.902 808.883 615.916 809.111ZM636.326 863.457C638.637 864.694 640.753 865.312 642.674 865.312C645.571 865.312 647.785 864.303 649.314 862.285C651.495 859.421 652.586 854.961 652.586 848.906C652.586 842.689 651.528 838.034 649.412 834.941C648.012 832.956 646.173 831.963 643.895 831.963C641.779 831.963 639.988 832.907 638.523 834.795C637.059 836.65 636.326 839.759 636.326 844.121V863.457ZM670.652 832.598V829.18C678.725 827.422 685.171 825.208 689.988 822.539L692.332 823.857C691.779 827.275 691.453 831.035 691.355 835.137C694.676 829.928 697.117 826.722 698.68 825.518C700.275 824.313 702.146 823.711 704.295 823.711C705.76 823.711 707.371 824.102 709.129 824.883C708.12 828.952 707.339 833.167 706.785 837.529H703.465C703.302 836.227 702.879 835.267 702.195 834.648C701.512 834.03 700.698 833.721 699.754 833.721C698.322 833.721 696.971 834.388 695.701 835.723C693.781 837.773 692.446 840.296 691.697 843.291C691.307 844.821 691.111 847.458 691.111 851.201C691.111 857.809 691.176 861.618 691.307 862.627C691.437 863.636 691.795 864.385 692.381 864.873C692.967 865.361 694.773 865.947 697.801 866.631C698.224 866.729 698.859 866.891 699.705 867.119V870.537C693.52 870.179 688.523 870 684.715 870C680.613 870 675.926 870.179 670.652 870.537V867.119C674.559 866.305 676.772 865.394 677.293 864.385C678.042 862.985 678.416 856.296 678.416 844.316C678.416 837.969 678.172 834.372 677.684 833.525C677.195 832.646 676.316 832.207 675.047 832.207C674.07 832.207 672.605 832.337 670.652 832.598ZM718.895 839.678L714.549 839.238C715.493 834.616 716.095 830.514 716.355 826.934C722.28 824.069 728.465 822.637 734.91 822.637C738.654 822.637 741.632 823.239 743.846 824.443C746.092 825.648 747.638 827.292 748.484 829.375C749.331 831.458 749.754 834.697 749.754 839.092L749.559 855.693C749.559 858.851 749.819 860.853 750.34 861.699C750.893 862.513 751.609 862.92 752.488 862.92C753.53 862.92 755.076 862.35 757.127 861.211L758.982 864.043C754.555 867.168 751.284 869.219 749.168 870.195C747.638 870.879 746.173 871.221 744.773 871.221C742.918 871.221 741.323 870.716 739.988 869.707C738.654 868.698 737.742 867.201 737.254 865.215C733.348 867.917 730.613 869.593 729.051 870.244C727.488 870.928 725.6 871.27 723.387 871.27C720.034 871.27 717.283 870.146 715.135 867.9C713.019 865.622 711.961 862.594 711.961 858.818C711.961 856.149 712.677 853.675 714.109 851.396C715.086 849.801 716.893 848.271 719.529 846.807L737.254 838.408C737.189 834.535 736.57 831.93 735.398 830.596C734.259 829.261 732.55 828.594 730.271 828.594C727.96 828.594 725.942 829.359 724.217 830.889C722.524 832.386 720.75 835.316 718.895 839.678ZM737.254 843.682C731.883 846.188 728.497 848.239 727.098 849.834C725.698 851.429 724.998 853.512 724.998 856.084C724.998 858.721 725.519 860.658 726.561 861.895C727.602 863.132 728.953 863.75 730.613 863.75C731.883 863.75 733.104 863.327 734.275 862.48C735.48 861.634 736.277 860.446 736.668 858.916C737.091 857.354 737.303 854.098 737.303 849.15C737.303 848.011 737.286 846.188 737.254 843.682ZM759.129 832.598V829.18C767.202 827.422 773.647 825.208 778.465 822.539L780.809 823.857C780.255 827.275 779.93 831.035 779.832 835.137C783.152 829.928 785.594 826.722 787.156 825.518C788.751 824.313 790.623 823.711 792.771 823.711C794.236 823.711 795.848 824.102 797.605 824.883C796.596 828.952 795.815 833.167 795.262 837.529H791.941C791.779 836.227 791.355 835.267 790.672 834.648C789.988 834.03 789.174 833.721 788.23 833.721C786.798 833.721 785.447 834.388 784.178 835.723C782.257 837.773 780.923 840.296 780.174 843.291C779.783 844.821 779.588 847.458 779.588 851.201C779.588 857.809 779.653 861.618 779.783 862.627C779.913 863.636 780.271 864.385 780.857 864.873C781.443 865.361 783.25 865.947 786.277 866.631C786.701 866.729 787.335 866.891 788.182 867.119V870.537C781.997 870.179 777 870 773.191 870C769.09 870 764.402 870.179 759.129 870.537V867.119C763.035 866.305 765.249 865.394 765.77 864.385C766.518 862.985 766.893 856.296 766.893 844.316C766.893 837.969 766.648 834.372 766.16 833.525C765.672 832.646 764.793 832.207 763.523 832.207C762.547 832.207 761.082 832.337 759.129 832.598ZM798.729 827.227V823.809C804.653 824.167 809.227 824.346 812.449 824.346C815.802 824.346 820.229 824.167 825.73 823.809V827.227C825.21 827.324 824.819 827.389 824.559 827.422C822.573 827.747 821.352 828.105 820.896 828.496C820.441 828.854 820.213 829.326 820.213 829.912C820.213 830.4 820.555 831.475 821.238 833.135L828.562 851.396L834.373 834.209C834.992 832.354 835.301 830.97 835.301 830.059C835.301 829.505 835.089 829.033 834.666 828.643C834.243 828.219 833.136 827.747 831.346 827.227V823.809C835.057 824.167 838.1 824.346 840.477 824.346C843.048 824.346 845.717 824.167 848.484 823.809V827.227C846.043 828.008 844.464 828.691 843.748 829.277C843.032 829.863 842.267 831.051 841.453 832.842C840.672 834.6 838.198 841.159 834.031 852.52C828.79 866.842 825.389 875.632 823.826 878.887C821.613 883.444 819.22 886.602 816.648 888.359C814.077 890.117 811.456 890.996 808.787 890.996C807.713 890.996 806.232 890.817 804.344 890.459C803.66 887.887 803.09 885.999 802.635 884.795C802.179 883.623 801.398 881.914 800.291 879.668L803.025 877.91C804.686 879.44 806.085 880.465 807.225 880.986C808.364 881.507 809.536 881.768 810.74 881.768C812.889 881.768 814.826 880.986 816.551 879.424C818.309 877.861 820.197 874.248 822.215 868.584L808.299 837.09C806.574 833.118 805.271 830.742 804.393 829.961C803.514 829.147 801.626 828.236 798.729 827.227Z" fill="black"/>
<path d="M354.342 890.432V888.625C358.85 888.804 362.382 888.894 364.938 888.894L373.141 888.771C375.582 888.771 377.511 889.032 378.927 889.553C380.343 890.074 381.49 891.026 382.369 892.409C383.248 893.793 383.688 895.469 383.688 897.438C383.688 900.596 382.613 903.2 380.465 905.251C378.316 907.285 375.379 908.303 371.651 908.303C370.496 908.303 369.055 908.164 367.33 907.888C367.363 912.25 367.379 914.772 367.379 915.456L367.354 917.238C367.354 918.801 367.485 919.737 367.745 920.046C368.168 920.567 369.674 920.982 372.262 921.291C372.555 921.324 372.994 921.381 373.58 921.462V923.269C368.925 923.09 365.564 923 363.497 923C361.104 923 358.053 923.09 354.342 923.269V921.462C357.206 920.957 358.801 920.559 359.127 920.266C359.469 919.973 359.672 919.427 359.737 918.63C359.802 917.832 359.859 913.422 359.908 905.397L359.884 898C359.868 895.021 359.811 893.272 359.713 892.751C359.615 892.23 359.404 891.856 359.078 891.628C358.655 891.335 357.434 891.001 355.416 890.627C355.172 890.594 354.814 890.529 354.342 890.432ZM367.33 905.129C368.323 905.227 369.177 905.275 369.894 905.275C371.782 905.275 373.255 904.698 374.312 903.542C375.37 902.386 375.899 900.596 375.899 898.171C375.899 896.022 375.379 894.395 374.337 893.288C373.295 892.181 371.814 891.628 369.894 891.628C369.161 891.628 368.307 891.709 367.33 891.872V905.129ZM404.049 916.652L405.318 918.508C402.763 920.673 400.411 922.243 398.263 923.22C397.335 923.643 396.147 923.854 394.698 923.854C391.671 923.854 389.36 922.959 387.765 921.169C385.746 918.923 384.737 915.928 384.737 912.185C384.737 908.295 385.893 905.137 388.204 902.712C390.515 900.287 393.38 899.074 396.798 899.074C399.923 899.074 402.21 900.018 403.658 901.906C404.618 903.143 405.172 905.072 405.318 907.692C404.505 908.229 403.748 908.84 403.048 909.523C401.339 909.458 399.597 909.426 397.823 909.426C395.512 909.426 393.364 909.458 391.378 909.523C391.362 909.882 391.354 910.183 391.354 910.427C391.354 912.722 391.874 914.74 392.916 916.481C393.974 918.223 395.553 919.094 397.652 919.094C398.678 919.094 399.654 918.923 400.582 918.581C401.526 918.239 402.682 917.596 404.049 916.652ZM391.427 907.009C392.338 907.041 393.087 907.058 393.673 907.058C395.073 907.058 396.782 906.993 398.8 906.862C398.702 904.795 398.352 903.42 397.75 902.736C397.164 902.053 396.35 901.711 395.309 901.711C394.299 901.711 393.437 902.118 392.721 902.932C392.005 903.745 391.573 905.104 391.427 907.009ZM407.125 904.299V902.59C411.161 901.711 414.384 900.604 416.793 899.27L417.965 899.929C417.688 901.638 417.525 903.518 417.477 905.568C419.137 902.964 420.357 901.361 421.139 900.759C421.936 900.157 422.872 899.855 423.946 899.855C424.679 899.855 425.484 900.051 426.363 900.441C425.859 902.476 425.468 904.584 425.191 906.765H423.531C423.45 906.114 423.238 905.633 422.896 905.324C422.555 905.015 422.148 904.86 421.676 904.86C420.96 904.86 420.284 905.194 419.649 905.861C418.689 906.887 418.022 908.148 417.647 909.646C417.452 910.41 417.354 911.729 417.354 913.601C417.354 916.905 417.387 918.809 417.452 919.313C417.517 919.818 417.696 920.192 417.989 920.437C418.282 920.681 419.186 920.974 420.699 921.315C420.911 921.364 421.228 921.446 421.651 921.56V923.269C418.559 923.09 416.061 923 414.156 923C412.105 923 409.762 923.09 407.125 923.269V921.56C409.078 921.153 410.185 920.697 410.445 920.192C410.82 919.493 411.007 916.148 411.007 910.158C411.007 906.984 410.885 905.186 410.641 904.763C410.396 904.323 409.957 904.104 409.322 904.104C408.834 904.104 408.102 904.169 407.125 904.299ZM427.096 904.396V902.712C429.749 902.045 431.629 901.507 432.735 901.101C433.858 900.694 435.193 900.075 436.739 899.245L437.936 899.855C437.74 901.092 437.61 902.386 437.545 903.737C439.514 901.687 440.792 900.498 441.378 900.173C442.42 899.603 443.551 899.318 444.771 899.318C446.871 899.318 448.661 900.222 450.143 902.028C451.64 903.819 452.389 906.398 452.389 909.768C452.389 913.804 451.201 917.124 448.824 919.729C446.448 922.316 443.762 923.61 440.768 923.61C440.149 923.61 439.547 923.537 438.961 923.391C438.375 923.244 437.813 923.033 437.276 922.756C437.26 923.553 437.252 924.164 437.252 924.587C437.252 928.168 437.366 930.145 437.594 930.52C437.838 930.894 438.904 931.325 440.792 931.813C440.971 931.862 441.248 931.936 441.622 932.033V933.742C438.383 933.563 435.877 933.474 434.103 933.474C432.28 933.474 429.863 933.563 426.852 933.742V932.033C428.658 931.577 429.749 931.179 430.123 930.837C430.497 930.495 430.709 930.031 430.758 929.445C430.872 928.127 430.929 924.034 430.929 917.165C430.929 909.906 430.872 905.992 430.758 905.422C430.579 904.592 430.042 904.177 429.146 904.177C428.674 904.177 427.991 904.25 427.096 904.396ZM437.276 919.509C437.927 920.013 438.554 920.396 439.156 920.656C439.775 920.917 440.361 921.047 440.914 921.047C442.265 921.047 443.282 920.567 443.966 919.606C445.056 918.06 445.602 915.7 445.602 912.526C445.602 909.45 445.073 907.163 444.015 905.666C443.266 904.608 442.322 904.079 441.183 904.079C440.239 904.079 439.4 904.462 438.668 905.227C437.936 905.975 437.496 907.204 437.35 908.913C437.301 909.564 437.276 913.096 437.276 919.509ZM481.368 919.484V921.291C479.024 921.6 477.153 921.942 475.753 922.316C474.369 922.674 472.994 923.146 471.627 923.732L470.479 923C470.675 921.877 470.821 920.705 470.919 919.484C468.852 921.389 467.411 922.552 466.598 922.976C465.784 923.399 464.84 923.61 463.766 923.61C462.529 923.61 461.463 923.391 460.567 922.951C459.688 922.495 459.029 921.926 458.59 921.242C458.15 920.542 457.866 919.631 457.735 918.508C457.67 917.792 457.638 915.936 457.638 912.941L457.662 908.083C457.662 905.414 457.483 903.859 457.125 903.42C456.767 902.98 455.644 902.679 453.756 902.517V900.881C457.467 900.604 460.665 900.067 463.351 899.27L464.474 899.978C464.343 900.791 464.238 901.996 464.156 903.591C464.026 906.472 463.961 909.003 463.961 911.184C463.961 914.553 464.181 916.726 464.62 917.702C465.076 918.679 465.922 919.167 467.159 919.167C468.136 919.167 468.966 918.858 469.649 918.239C470.349 917.621 470.805 916.677 471.017 915.407C471.163 914.61 471.236 912.046 471.236 907.717C471.236 905.194 471.082 903.754 470.772 903.396C470.479 903.021 469.348 902.728 467.379 902.517V900.881C470.211 900.604 472.237 900.36 473.458 900.148C474.679 899.921 475.875 899.628 477.047 899.27L478.194 899.953C477.95 901.418 477.796 902.801 477.73 904.104C477.6 906.268 477.535 909.532 477.535 913.894C477.535 916.758 477.617 918.378 477.779 918.752C477.991 919.273 478.504 919.533 479.317 919.533H479.586C479.993 919.517 480.587 919.501 481.368 919.484ZM483.712 915.188H485.909C486.332 917.434 487.032 919.037 488.009 919.997C489.002 920.941 490.149 921.413 491.451 921.413C492.444 921.413 493.225 921.153 493.795 920.632C494.381 920.095 494.674 919.444 494.674 918.679C494.674 917.979 494.389 917.303 493.819 916.652C493.25 916.001 491.793 915 489.449 913.649C487.122 912.299 485.567 911.07 484.786 909.963C483.989 908.856 483.59 907.619 483.59 906.252C483.59 904.25 484.396 902.557 486.007 901.174C487.618 899.774 489.929 899.074 492.94 899.074C495.105 899.074 497.327 899.562 499.605 900.539C499.394 901.434 499.158 903.477 498.897 906.667L496.773 906.594C496.432 904.657 495.846 903.29 495.016 902.492C494.202 901.695 493.25 901.296 492.159 901.296C491.264 901.296 490.564 901.532 490.06 902.004C489.571 902.46 489.327 903.054 489.327 903.786C489.327 904.421 489.547 904.999 489.986 905.52C490.589 906.236 491.931 907.18 494.015 908.352C496.635 909.833 498.344 911.11 499.142 912.185C499.939 913.259 500.338 914.52 500.338 915.969C500.338 917.938 499.589 919.745 498.092 921.389C496.594 923.033 494.015 923.854 490.353 923.854C488.237 923.854 485.909 923.48 483.37 922.731C483.582 919.867 483.696 917.352 483.712 915.188ZM518.819 900.148L519.137 900.49C518.616 901.402 518.152 902.346 517.745 903.322C516.004 903.143 514.124 903.013 512.105 902.932L512.032 905.837L511.959 909.182L511.886 912.502C511.886 915.611 512.138 917.564 512.643 918.361C513.163 919.143 513.839 919.533 514.669 919.533C515.304 919.533 516.329 919.224 517.745 918.605L518.624 920.363C516.166 921.844 514.531 922.731 513.717 923.024C512.626 923.415 511.585 923.61 510.592 923.61C509.078 923.61 507.866 923.13 506.954 922.17C506.059 921.21 505.611 919.794 505.611 917.922L505.709 912.282L505.904 902.932L503.927 902.883C503.748 902.883 503.243 902.899 502.413 902.932V901.125C503.976 900.572 505.408 899.668 506.71 898.415C508.028 897.162 509.355 895.306 510.689 892.849H512.838C512.415 895.55 512.171 897.984 512.105 900.148C513.521 900.181 514.384 900.197 514.693 900.197C515.296 900.197 516.671 900.181 518.819 900.148ZM524.557 907.839L522.384 907.619C522.856 905.308 523.157 903.257 523.287 901.467C526.249 900.035 529.342 899.318 532.564 899.318C534.436 899.318 535.925 899.619 537.032 900.222C538.155 900.824 538.928 901.646 539.352 902.688C539.775 903.729 539.986 905.349 539.986 907.546L539.889 915.847C539.889 917.425 540.019 918.426 540.279 918.85C540.556 919.257 540.914 919.46 541.354 919.46C541.874 919.46 542.647 919.175 543.673 918.605L544.601 920.021C542.387 921.584 540.751 922.609 539.693 923.098C538.928 923.439 538.196 923.61 537.496 923.61C536.568 923.61 535.771 923.358 535.104 922.854C534.436 922.349 533.98 921.6 533.736 920.607C531.783 921.958 530.416 922.797 529.635 923.122C528.854 923.464 527.91 923.635 526.803 923.635C525.126 923.635 523.751 923.073 522.677 921.95C521.619 920.811 521.09 919.297 521.09 917.409C521.09 916.075 521.448 914.838 522.164 913.698C522.652 912.901 523.556 912.136 524.874 911.403L533.736 907.204C533.704 905.267 533.395 903.965 532.809 903.298C532.239 902.631 531.384 902.297 530.245 902.297C529.09 902.297 528.08 902.679 527.218 903.444C526.371 904.193 525.484 905.658 524.557 907.839ZM533.736 909.841C531.051 911.094 529.358 912.119 528.658 912.917C527.958 913.715 527.608 914.756 527.608 916.042C527.608 917.36 527.869 918.329 528.39 918.947C528.91 919.566 529.586 919.875 530.416 919.875C531.051 919.875 531.661 919.663 532.247 919.24C532.849 918.817 533.248 918.223 533.443 917.458C533.655 916.677 533.761 915.049 533.761 912.575C533.761 912.006 533.753 911.094 533.736 909.841ZM544.576 892.434V890.847C548.385 889.935 551.616 888.78 554.269 887.38L555.44 888.186C555.196 890.236 555.034 892.352 554.952 894.533C554.871 896.698 554.822 901.979 554.806 910.378C555.587 909.58 556.97 908.107 558.956 905.959C560.307 904.494 561.039 903.656 561.153 903.444C561.267 903.233 561.324 903.029 561.324 902.834C561.324 902.557 561.194 902.329 560.934 902.15C560.624 901.906 559.998 901.735 559.054 901.638V899.904C562.032 900.083 564.042 900.173 565.084 900.173C566.126 900.173 568.071 900.083 570.919 899.904V901.638C569.031 901.979 567.615 902.443 566.671 903.029C565.336 903.827 563.196 905.666 560.25 908.547C560.592 909.051 562.577 911.826 566.207 916.872C567.558 918.76 568.567 919.948 569.234 920.437C569.739 920.811 570.61 921.185 571.847 921.56V923.269C568.836 923.09 566.679 923 565.377 923C564.091 923 561.983 923.09 559.054 923.269V921.56C559.754 921.381 560.177 921.226 560.323 921.096C560.47 920.949 560.543 920.77 560.543 920.559C560.543 920.363 560.478 920.127 560.348 919.851C560.152 919.509 558.915 917.515 556.637 913.869L554.806 910.915V916.237C554.806 918.386 554.846 919.606 554.928 919.899C555.025 920.323 555.204 920.64 555.465 920.852C555.742 921.047 556.474 921.283 557.662 921.56V923.269C555.042 923.09 552.885 923 551.192 923C549.549 923 547.343 923.09 544.576 923.269V921.56C546.269 921.201 547.302 920.811 547.677 920.388C547.953 920.062 548.132 918.955 548.214 917.067C548.295 915.163 548.336 909.58 548.336 900.319C548.336 895.974 548.295 893.622 548.214 893.264C548.035 892.629 547.498 892.312 546.603 892.312C546.147 892.312 545.471 892.352 544.576 892.434ZM576.656 907.839L574.483 907.619C574.955 905.308 575.257 903.257 575.387 901.467C578.349 900.035 581.441 899.318 584.664 899.318C586.536 899.318 588.025 899.619 589.132 900.222C590.255 900.824 591.028 901.646 591.451 902.688C591.874 903.729 592.086 905.349 592.086 907.546L591.988 915.847C591.988 917.425 592.118 918.426 592.379 918.85C592.656 919.257 593.014 919.46 593.453 919.46C593.974 919.46 594.747 919.175 595.772 918.605L596.7 920.021C594.487 921.584 592.851 922.609 591.793 923.098C591.028 923.439 590.296 923.61 589.596 923.61C588.668 923.61 587.87 923.358 587.203 922.854C586.536 922.349 586.08 921.6 585.836 920.607C583.883 921.958 582.516 922.797 581.734 923.122C580.953 923.464 580.009 923.635 578.902 923.635C577.226 923.635 575.851 923.073 574.776 921.95C573.718 920.811 573.189 919.297 573.189 917.409C573.189 916.075 573.548 914.838 574.264 913.698C574.752 912.901 575.655 912.136 576.974 911.403L585.836 907.204C585.803 905.267 585.494 903.965 584.908 903.298C584.339 902.631 583.484 902.297 582.345 902.297C581.189 902.297 580.18 902.679 579.317 903.444C578.471 904.193 577.584 905.658 576.656 907.839ZM585.836 909.841C583.15 911.094 581.458 912.119 580.758 912.917C580.058 913.715 579.708 914.756 579.708 916.042C579.708 917.36 579.968 918.329 580.489 918.947C581.01 919.566 581.686 919.875 582.516 919.875C583.15 919.875 583.761 919.663 584.347 919.24C584.949 918.817 585.348 918.223 585.543 917.458C585.755 916.677 585.86 915.049 585.86 912.575C585.86 912.006 585.852 911.094 585.836 909.841ZM601.656 907.839L599.483 907.619C599.955 905.308 600.257 903.257 600.387 901.467C603.349 900.035 606.441 899.318 609.664 899.318C611.536 899.318 613.025 899.619 614.132 900.222C615.255 900.824 616.028 901.646 616.451 902.688C616.874 903.729 617.086 905.349 617.086 907.546L616.988 915.847C616.988 917.425 617.118 918.426 617.379 918.85C617.656 919.257 618.014 919.46 618.453 919.46C618.974 919.46 619.747 919.175 620.772 918.605L621.7 920.021C619.487 921.584 617.851 922.609 616.793 923.098C616.028 923.439 615.296 923.61 614.596 923.61C613.668 923.61 612.87 923.358 612.203 922.854C611.536 922.349 611.08 921.6 610.836 920.607C608.883 921.958 607.516 922.797 606.734 923.122C605.953 923.464 605.009 923.635 603.902 923.635C602.226 923.635 600.851 923.073 599.776 921.95C598.718 920.811 598.189 919.297 598.189 917.409C598.189 916.075 598.548 914.838 599.264 913.698C599.752 912.901 600.655 912.136 601.974 911.403L610.836 907.204C610.803 905.267 610.494 903.965 609.908 903.298C609.339 902.631 608.484 902.297 607.345 902.297C606.189 902.297 605.18 902.679 604.317 903.444C603.471 904.193 602.584 905.658 601.656 907.839ZM610.836 909.841C608.15 911.094 606.458 912.119 605.758 912.917C605.058 913.715 604.708 914.756 604.708 916.042C604.708 917.36 604.968 918.329 605.489 918.947C606.01 919.566 606.686 919.875 607.516 919.875C608.15 919.875 608.761 919.663 609.347 919.24C609.949 918.817 610.348 918.223 610.543 917.458C610.755 916.677 610.86 915.049 610.86 912.575C610.86 912.006 610.852 911.094 610.836 909.841ZM621.822 904.323V902.565C623.971 902.11 625.753 901.63 627.169 901.125C628.601 900.62 630.017 899.978 631.417 899.196L632.687 899.929C632.459 901.166 632.304 902.517 632.223 903.981C634.029 901.931 635.388 900.645 636.3 900.124C637.211 899.587 638.285 899.318 639.522 899.318C640.743 899.318 641.793 899.554 642.672 900.026C643.567 900.498 644.226 901.101 644.649 901.833C645.089 902.549 645.374 903.518 645.504 904.738C645.585 905.503 645.626 907.342 645.626 910.256L645.602 914.602C645.602 917.401 645.634 919.053 645.699 919.558C645.764 920.046 645.919 920.404 646.163 920.632C646.424 920.843 647.148 921.079 648.336 921.34C648.531 921.389 648.84 921.462 649.264 921.56V923.269C646.546 923.09 644.438 923 642.94 923C641.427 923 639.197 923.09 636.251 923.269V921.56C637.504 921.25 638.269 920.974 638.546 920.729C638.823 920.469 638.993 920.046 639.059 919.46C639.156 918.646 639.205 915.952 639.205 911.379C639.205 908.14 639.067 906.187 638.79 905.52C638.334 904.462 637.48 903.933 636.227 903.933C635.315 903.933 634.477 904.258 633.712 904.909C632.963 905.56 632.483 906.39 632.271 907.399C632.06 908.409 631.954 910.63 631.954 914.064C631.954 917.141 632.019 919.053 632.149 919.802C632.215 920.209 632.361 920.51 632.589 920.705C632.817 920.884 633.582 921.169 634.884 921.56V923.269C632.41 923.09 630.343 923 628.683 923C627.136 923 624.85 923.09 621.822 923.269V921.56C623.613 921.088 624.622 920.746 624.85 920.534C625.094 920.323 625.257 919.834 625.338 919.069C625.484 917.312 625.558 915.033 625.558 912.233C625.558 907.953 625.509 905.601 625.411 905.178C625.216 904.462 624.719 904.104 623.922 904.104C623.417 904.104 622.717 904.177 621.822 904.323ZM662.35 890.432V888.625C665.263 888.804 667.664 888.894 669.552 888.894C671.57 888.894 673.759 888.804 676.119 888.625C676.803 890.48 677.698 892.678 678.805 895.217C681.832 902.053 684.509 907.855 686.837 912.624L692.989 899.343C693.966 897.178 694.739 895.404 695.309 894.021C695.895 892.621 696.594 890.822 697.408 888.625C700.501 888.804 702.747 888.894 704.146 888.894C705.351 888.894 707.532 888.804 710.689 888.625V890.432C710.201 890.529 709.835 890.594 709.591 890.627C707.491 890.985 706.271 891.311 705.929 891.604C705.603 891.896 705.392 892.507 705.294 893.435C705.213 894.346 705.172 898.033 705.172 904.494C705.172 912.697 705.18 916.978 705.196 917.336C705.245 918.622 705.335 919.411 705.465 919.704C705.611 919.997 705.79 920.209 706.002 920.339C706.572 920.664 707.768 920.965 709.591 921.242L710.689 921.462V923.269C706.751 923.09 703.748 923 701.681 923C699.549 923 696.399 923.09 692.232 923.269V921.462C694.804 920.99 696.244 920.689 696.554 920.559C696.879 920.412 697.123 920.225 697.286 919.997C697.449 919.769 697.555 919.46 697.604 919.069C697.669 918.679 697.701 917.01 697.701 914.064C697.734 907.668 697.75 902.671 697.75 899.074C697.75 898.732 697.742 897.666 697.726 895.876C696.83 897.731 693.559 904.958 687.911 917.556L685.445 923H683.565C681.726 918.85 677.584 909.751 671.139 895.705C671.106 897.837 671.09 899.644 671.09 901.125C671.09 909.247 671.163 914.618 671.31 917.238C671.391 918.736 671.472 919.574 671.554 919.753C671.668 920.062 671.912 920.314 672.286 920.51C672.66 920.705 673.767 920.957 675.606 921.267C675.834 921.315 676.168 921.381 676.607 921.462V923.269C674.296 923.09 672.066 923 669.918 923C667.753 923 665.287 923.09 662.521 923.269V921.462C664.636 921.088 665.922 920.819 666.378 920.656C666.834 920.493 667.175 920.225 667.403 919.851C667.631 919.476 667.745 918.776 667.745 917.751L668.038 902.224C668.087 899.506 668.111 897.487 668.111 896.169C668.111 894.134 668.006 892.8 667.794 892.165C667.664 891.774 667.411 891.481 667.037 891.286C666.679 891.091 665.499 890.863 663.497 890.603C663.237 890.57 662.854 890.513 662.35 890.432ZM719.161 887.722C720.252 887.722 721.179 888.112 721.944 888.894C722.726 889.659 723.116 890.586 723.116 891.677C723.116 892.767 722.726 893.703 721.944 894.484C721.179 895.249 720.252 895.632 719.161 895.632C718.071 895.632 717.135 895.249 716.354 894.484C715.589 893.703 715.206 892.767 715.206 891.677C715.206 890.586 715.589 889.659 716.354 888.894C717.118 888.112 718.054 887.722 719.161 887.722ZM712.081 904.128V902.37C715.776 901.719 718.966 900.588 721.651 898.977L722.896 899.636C722.669 901.605 722.522 903.363 722.457 904.909C722.343 907.204 722.286 910.834 722.286 915.798C722.286 917.881 722.359 919.208 722.506 919.777C722.604 920.152 722.791 920.437 723.067 920.632C723.36 920.811 724.337 921.12 725.997 921.56V923.269C723.735 923.09 721.668 923 719.796 923C718.006 923 715.393 923.09 711.959 923.269V921.56L712.594 921.413C714.026 921.088 714.872 920.811 715.133 920.583C715.393 920.339 715.556 919.916 715.621 919.313C715.768 917.767 715.841 914.577 715.841 909.743C715.841 906.944 715.768 905.316 715.621 904.86C715.426 904.258 714.962 903.957 714.229 903.957C713.595 903.957 712.879 904.014 712.081 904.128ZM727.34 904.323V902.565C729.488 902.11 731.271 901.63 732.687 901.125C734.119 900.62 735.535 899.978 736.935 899.196L738.204 899.929C737.976 901.166 737.822 902.517 737.74 903.981C739.547 901.931 740.906 900.645 741.817 900.124C742.729 899.587 743.803 899.318 745.04 899.318C746.261 899.318 747.311 899.554 748.189 900.026C749.085 900.498 749.744 901.101 750.167 901.833C750.606 902.549 750.891 903.518 751.021 904.738C751.103 905.503 751.144 907.342 751.144 910.256L751.119 914.602C751.119 917.401 751.152 919.053 751.217 919.558C751.282 920.046 751.437 920.404 751.681 920.632C751.941 920.843 752.665 921.079 753.854 921.34C754.049 921.389 754.358 921.462 754.781 921.56V923.269C752.063 923.09 749.955 923 748.458 923C746.944 923 744.715 923.09 741.769 923.269V921.56C743.022 921.25 743.787 920.974 744.063 920.729C744.34 920.469 744.511 920.046 744.576 919.46C744.674 918.646 744.723 915.952 744.723 911.379C744.723 908.14 744.584 906.187 744.308 905.52C743.852 904.462 742.997 903.933 741.744 903.933C740.833 903.933 739.994 904.258 739.229 904.909C738.481 905.56 738.001 906.39 737.789 907.399C737.577 908.409 737.472 910.63 737.472 914.064C737.472 917.141 737.537 919.053 737.667 919.802C737.732 920.209 737.879 920.51 738.106 920.705C738.334 920.884 739.099 921.169 740.401 921.56V923.269C737.927 923.09 735.86 923 734.2 923C732.654 923 730.367 923.09 727.34 923.269V921.56C729.13 921.088 730.139 920.746 730.367 920.534C730.611 920.323 730.774 919.834 730.855 919.069C731.002 917.312 731.075 915.033 731.075 912.233C731.075 907.953 731.026 905.601 730.929 905.178C730.733 904.462 730.237 904.104 729.439 904.104C728.935 904.104 728.235 904.177 727.34 904.323ZM762.96 887.722C764.05 887.722 764.978 888.112 765.743 888.894C766.524 889.659 766.915 890.586 766.915 891.677C766.915 892.767 766.524 893.703 765.743 894.484C764.978 895.249 764.05 895.632 762.96 895.632C761.869 895.632 760.934 895.249 760.152 894.484C759.387 893.703 759.005 892.767 759.005 891.677C759.005 890.586 759.387 889.659 760.152 888.894C760.917 888.112 761.853 887.722 762.96 887.722ZM755.88 904.128V902.37C759.575 901.719 762.765 900.588 765.45 898.977L766.695 899.636C766.467 901.605 766.321 903.363 766.256 904.909C766.142 907.204 766.085 910.834 766.085 915.798C766.085 917.881 766.158 919.208 766.305 919.777C766.402 920.152 766.59 920.437 766.866 920.632C767.159 920.811 768.136 921.12 769.796 921.56V923.269C767.534 923.09 765.466 923 763.595 923C761.804 923 759.192 923.09 755.758 923.269V921.56L756.393 921.413C757.825 921.088 758.671 920.811 758.932 920.583C759.192 920.339 759.355 919.916 759.42 919.313C759.566 917.767 759.64 914.577 759.64 909.743C759.64 906.944 759.566 905.316 759.42 904.86C759.225 904.258 758.761 903.957 758.028 903.957C757.394 903.957 756.677 904.014 755.88 904.128Z" fill="#666666"/>
</g>
<path d="M1841.37 711.727V704.5C1859.4 705.216 1873.53 705.574 1883.75 705.574L1916.56 705.086C1926.33 705.086 1934.04 706.128 1939.71 708.211C1945.37 710.294 1949.96 714.103 1953.48 719.637C1956.99 725.171 1958.75 731.876 1958.75 739.754C1958.75 752.384 1954.45 762.801 1945.86 771.004C1937.27 779.142 1925.51 783.211 1910.61 783.211C1905.98 783.211 1900.22 782.658 1893.32 781.551C1893.45 798.999 1893.52 809.09 1893.52 811.824L1893.42 818.953C1893.42 825.203 1893.94 828.947 1894.98 830.184C1896.67 832.267 1902.7 833.927 1913.05 835.164C1914.22 835.294 1915.98 835.522 1918.32 835.848V843.074C1899.7 842.358 1886.26 842 1877.99 842C1868.42 842 1856.21 842.358 1841.37 843.074V835.848C1852.83 833.829 1859.21 832.234 1860.51 831.062C1861.88 829.891 1862.69 827.71 1862.95 824.52C1863.21 821.329 1863.44 803.686 1863.63 771.59L1863.54 742C1863.47 730.086 1863.24 723.087 1862.85 721.004C1862.46 718.921 1861.61 717.423 1860.31 716.512C1858.62 715.34 1853.74 714.005 1845.66 712.508C1844.69 712.378 1843.26 712.117 1841.37 711.727ZM1893.32 770.516C1897.29 770.906 1900.71 771.102 1903.57 771.102C1911.13 771.102 1917.02 768.79 1921.25 764.168C1925.48 759.546 1927.6 752.384 1927.6 742.684C1927.6 734.09 1925.51 727.579 1921.35 723.152C1917.18 718.725 1911.26 716.512 1903.57 716.512C1900.64 716.512 1897.23 716.837 1893.32 717.488V770.516ZM2040.2 816.609L2045.27 824.031C2035.05 832.69 2025.64 838.973 2017.05 842.879C2013.34 844.572 2008.59 845.418 2002.79 845.418C1990.68 845.418 1981.44 841.837 1975.06 834.676C1966.99 825.691 1962.95 813.712 1962.95 798.738C1962.95 783.178 1967.57 770.548 1976.82 760.848C1986.06 751.147 1997.52 746.297 2011.19 746.297C2023.69 746.297 2032.84 750.073 2038.63 757.625C2042.47 762.573 2044.69 770.288 2045.27 780.77C2042.02 782.918 2038.99 785.359 2036.19 788.094C2029.36 787.833 2022.39 787.703 2015.29 787.703C2006.05 787.703 1997.45 787.833 1989.51 788.094C1989.45 789.526 1989.41 790.73 1989.41 791.707C1989.41 800.887 1991.5 808.96 1995.66 815.926C1999.9 822.892 2006.21 826.375 2014.61 826.375C2018.71 826.375 2022.62 825.691 2026.33 824.324C2030.1 822.957 2034.73 820.385 2040.2 816.609ZM1989.71 778.035C1993.35 778.165 1996.35 778.23 1998.69 778.23C2004.29 778.23 2011.13 777.97 2019.2 777.449C2018.81 769.181 2017.41 763.68 2015 760.945C2012.66 758.211 2009.4 756.844 2005.23 756.844C2001.2 756.844 1997.75 758.471 1994.88 761.727C1992.02 764.982 1990.29 770.418 1989.71 778.035ZM2052.5 767.195V760.359C2068.65 756.844 2081.54 752.417 2091.17 747.078L2095.86 749.715C2094.75 756.551 2094.1 764.07 2093.91 772.273C2100.55 761.857 2105.43 755.444 2108.55 753.035C2111.74 750.626 2115.49 749.422 2119.79 749.422C2122.71 749.422 2125.94 750.203 2129.45 751.766C2127.43 759.904 2125.87 768.335 2124.77 777.059H2118.12C2117.8 774.454 2116.95 772.534 2115.59 771.297C2114.22 770.06 2112.59 769.441 2110.7 769.441C2107.84 769.441 2105.14 770.776 2102.6 773.445C2098.76 777.547 2096.09 782.592 2094.59 788.582C2093.81 791.642 2093.42 796.915 2093.42 804.402C2093.42 817.618 2093.55 825.236 2093.81 827.254C2094.07 829.272 2094.79 830.77 2095.96 831.746C2097.13 832.723 2100.74 833.895 2106.8 835.262C2107.64 835.457 2108.91 835.783 2110.61 836.238V843.074C2098.24 842.358 2088.24 842 2080.62 842C2072.42 842 2063.05 842.358 2052.5 843.074V836.238C2060.31 834.611 2064.74 832.788 2065.78 830.77C2067.28 827.97 2068.03 814.591 2068.03 790.633C2068.03 777.938 2067.54 770.743 2066.56 769.051C2065.59 767.293 2063.83 766.414 2061.29 766.414C2059.34 766.414 2056.41 766.674 2052.5 767.195ZM2132.38 767.586V760.848C2142.99 758.178 2150.51 756.03 2154.94 754.402C2159.43 752.775 2164.77 750.301 2170.96 746.98L2175.74 749.422C2174.96 754.37 2174.44 759.546 2174.18 764.949C2182.06 756.746 2187.17 751.993 2189.51 750.691C2193.68 748.413 2198.2 747.273 2203.09 747.273C2211.48 747.273 2218.65 750.887 2224.57 758.113C2230.56 765.275 2233.55 775.594 2233.55 789.07C2233.55 805.216 2228.8 818.497 2219.3 828.914C2209.79 839.266 2199.05 844.441 2187.07 844.441C2184.6 844.441 2182.19 844.148 2179.84 843.562C2177.5 842.977 2175.25 842.13 2173.11 841.023C2173.04 844.214 2173.01 846.655 2173.01 848.348C2173.01 862.671 2173.46 870.581 2174.38 872.078C2175.35 873.576 2179.62 875.301 2187.17 877.254C2187.88 877.449 2188.99 877.742 2190.49 878.133V884.969C2177.53 884.253 2167.51 883.895 2160.41 883.895C2153.12 883.895 2143.45 884.253 2131.41 884.969V878.133C2138.63 876.31 2142.99 874.715 2144.49 873.348C2145.99 871.98 2146.84 870.125 2147.03 867.781C2147.49 862.508 2147.71 846.134 2147.71 818.66C2147.71 789.624 2147.49 773.966 2147.03 771.688C2146.32 768.367 2144.17 766.707 2140.59 766.707C2138.7 766.707 2135.96 767 2132.38 767.586ZM2173.11 828.035C2175.71 830.053 2178.22 831.583 2180.62 832.625C2183.1 833.667 2185.44 834.188 2187.66 834.188C2193.06 834.188 2197.13 832.267 2199.86 828.426C2204.23 822.241 2206.41 812.801 2206.41 800.105C2206.41 787.801 2204.29 778.654 2200.06 772.664C2197.06 768.432 2193.29 766.316 2188.73 766.316C2184.95 766.316 2181.6 767.846 2178.67 770.906C2175.74 773.901 2173.98 778.816 2173.4 785.652C2173.2 788.257 2173.11 802.384 2173.11 828.035ZM2349.47 827.938V835.164C2340.1 836.401 2332.61 837.768 2327.01 839.266C2321.48 840.698 2315.98 842.586 2310.51 844.93L2305.92 842C2306.7 837.508 2307.29 832.82 2307.68 827.938C2299.41 835.555 2293.65 840.21 2290.39 841.902C2287.14 843.595 2283.36 844.441 2279.06 844.441C2274.11 844.441 2269.85 843.562 2266.27 841.805C2262.75 839.982 2260.12 837.703 2258.36 834.969C2256.6 832.169 2255.46 828.523 2254.94 824.031C2254.68 821.167 2254.55 813.745 2254.55 801.766L2254.65 782.332C2254.65 771.655 2253.93 765.438 2252.5 763.68C2251.07 761.922 2246.58 760.717 2239.02 760.066V753.523C2253.87 752.417 2266.66 750.268 2277.4 747.078L2281.89 749.91C2281.37 753.165 2280.95 757.983 2280.62 764.363C2280.1 775.887 2279.84 786.01 2279.84 794.734C2279.84 808.211 2280.72 816.902 2282.48 820.809C2284.3 824.715 2287.69 826.668 2292.64 826.668C2296.54 826.668 2299.86 825.431 2302.6 822.957C2305.4 820.483 2307.22 816.707 2308.07 811.629C2308.65 808.439 2308.95 798.185 2308.95 780.867C2308.95 770.776 2308.33 765.014 2307.09 763.582C2305.92 762.085 2301.39 760.913 2293.52 760.066V753.523C2304.84 752.417 2312.95 751.44 2317.83 750.594C2322.71 749.682 2327.5 748.51 2332.19 747.078L2336.78 749.812C2335.8 755.672 2335.18 761.206 2334.92 766.414C2334.4 775.073 2334.14 788.126 2334.14 805.574C2334.14 817.033 2334.47 823.51 2335.12 825.008C2335.96 827.091 2338.01 828.133 2341.27 828.133H2342.34C2343.97 828.068 2346.35 828.003 2349.47 827.938ZM2358.85 810.75H2367.64C2369.33 819.734 2372.13 826.147 2376.04 829.988C2380.01 833.764 2384.6 835.652 2389.8 835.652C2393.78 835.652 2396.9 834.611 2399.18 832.527C2401.52 830.379 2402.7 827.775 2402.7 824.715C2402.7 821.915 2401.56 819.214 2399.28 816.609C2397 814.005 2391.17 810.001 2381.8 804.598C2372.49 799.194 2366.27 794.279 2363.14 789.852C2359.95 785.424 2358.36 780.477 2358.36 775.008C2358.36 767 2361.58 760.229 2368.03 754.695C2374.47 749.096 2383.72 746.297 2395.76 746.297C2404.42 746.297 2413.31 748.25 2422.42 752.156C2421.58 755.737 2420.63 763.908 2419.59 776.668L2411.09 776.375C2409.73 768.628 2407.38 763.159 2404.06 759.969C2400.81 756.779 2397 755.184 2392.64 755.184C2389.06 755.184 2386.26 756.128 2384.24 758.016C2382.29 759.839 2381.31 762.215 2381.31 765.145C2381.31 767.684 2382.19 769.995 2383.95 772.078C2386.35 774.943 2391.73 778.719 2400.06 783.406C2410.54 789.331 2417.38 794.441 2420.57 798.738C2423.76 803.035 2425.35 808.081 2425.35 813.875C2425.35 821.753 2422.36 828.979 2416.37 835.555C2410.38 842.13 2400.06 845.418 2385.41 845.418C2376.95 845.418 2367.64 843.921 2357.48 840.926C2358.33 829.467 2358.78 819.409 2358.85 810.75ZM2499.28 750.594L2500.55 751.961C2498.46 755.607 2496.61 759.383 2494.98 763.289C2488.01 762.573 2480.49 762.052 2472.42 761.727L2472.13 773.348L2471.84 786.727L2471.54 800.008C2471.54 812.443 2472.55 820.255 2474.57 823.445C2476.65 826.57 2479.36 828.133 2482.68 828.133C2485.21 828.133 2489.32 826.896 2494.98 824.422L2498.5 831.453C2488.67 837.378 2482.12 840.926 2478.87 842.098C2474.51 843.66 2470.34 844.441 2466.37 844.441C2460.31 844.441 2455.46 842.521 2451.82 838.68C2448.24 834.839 2446.45 829.174 2446.45 821.688L2446.84 799.129L2447.62 761.727L2439.71 761.531C2438.99 761.531 2436.97 761.596 2433.65 761.727V754.5C2439.9 752.286 2445.63 748.673 2450.84 743.66C2456.11 738.647 2461.42 731.225 2466.76 721.395H2475.35C2473.66 732.202 2472.68 741.935 2472.42 750.594C2478.09 750.724 2481.54 750.789 2482.77 750.789C2485.18 750.789 2490.68 750.724 2499.28 750.594ZM2522.23 781.355L2513.54 780.477C2515.42 771.232 2516.63 763.029 2517.15 755.867C2529 750.138 2541.37 747.273 2554.26 747.273C2561.74 747.273 2567.7 748.478 2572.13 750.887C2576.62 753.296 2579.71 756.583 2581.41 760.75C2583.1 764.917 2583.95 771.395 2583.95 780.184L2583.55 813.387C2583.55 819.702 2584.08 823.706 2585.12 825.398C2586.22 827.026 2587.66 827.84 2589.41 827.84C2591.5 827.84 2594.59 826.701 2598.69 824.422L2602.4 830.086C2593.55 836.336 2587.01 840.438 2582.77 842.391C2579.71 843.758 2576.78 844.441 2573.98 844.441C2570.27 844.441 2567.08 843.432 2564.41 841.414C2561.74 839.396 2559.92 836.401 2558.95 832.43C2551.13 837.833 2545.66 841.186 2542.54 842.488C2539.41 843.855 2535.64 844.539 2531.21 844.539C2524.51 844.539 2519 842.293 2514.71 837.801C2510.48 833.243 2508.36 827.189 2508.36 819.637C2508.36 814.298 2509.79 809.35 2512.66 804.793C2514.61 801.603 2518.22 798.543 2523.5 795.613L2558.95 778.816C2558.82 771.069 2557.58 765.861 2555.23 763.191C2552.96 760.522 2549.54 759.188 2544.98 759.188C2540.36 759.188 2536.32 760.717 2532.87 763.777C2529.49 766.772 2525.94 772.632 2522.23 781.355ZM2558.95 789.363C2548.2 794.376 2541.43 798.478 2538.63 801.668C2535.83 804.858 2534.43 809.025 2534.43 814.168C2534.43 819.441 2535.48 823.315 2537.56 825.789C2539.64 828.263 2542.34 829.5 2545.66 829.5C2548.2 829.5 2550.64 828.654 2552.99 826.961C2555.4 825.268 2556.99 822.892 2557.77 819.832C2558.62 816.707 2559.04 810.197 2559.04 800.301C2559.04 798.022 2559.01 794.376 2558.95 789.363ZM2602.3 719.734V713.387C2617.54 709.741 2630.46 705.118 2641.07 699.52L2645.76 702.742C2644.79 710.945 2644.13 719.409 2643.81 728.133C2643.48 736.792 2643.29 757.918 2643.22 791.512C2646.35 788.322 2651.88 782.43 2659.82 773.836C2665.23 767.977 2668.16 764.624 2668.61 763.777C2669.07 762.931 2669.3 762.117 2669.3 761.336C2669.3 760.229 2668.78 759.318 2667.73 758.602C2666.5 757.625 2663.99 756.941 2660.21 756.551V749.617C2672.13 750.333 2680.17 750.691 2684.34 750.691C2688.5 750.691 2696.28 750.333 2707.68 749.617V756.551C2700.12 757.918 2694.46 759.773 2690.68 762.117C2685.35 765.307 2676.78 772.664 2665 784.188C2666.37 786.206 2674.31 797.306 2688.83 817.488C2694.23 825.04 2698.27 829.793 2700.94 831.746C2702.96 833.243 2706.44 834.741 2711.39 836.238V843.074C2699.34 842.358 2690.72 842 2685.51 842C2680.36 842 2671.93 842.358 2660.21 843.074V836.238C2663.01 835.522 2664.71 834.904 2665.29 834.383C2665.88 833.797 2666.17 833.081 2666.17 832.234C2666.17 831.453 2665.91 830.509 2665.39 829.402C2664.61 828.035 2659.66 820.06 2650.55 805.477L2643.22 793.66V814.949C2643.22 823.543 2643.39 828.426 2643.71 829.598C2644.1 831.29 2644.82 832.56 2645.86 833.406C2646.97 834.188 2649.9 835.132 2654.65 836.238V843.074C2644.17 842.358 2635.54 842 2628.77 842C2622.19 842 2613.37 842.358 2602.3 843.074V836.238C2609.08 834.806 2613.21 833.243 2614.71 831.551C2615.81 830.249 2616.53 825.822 2616.86 818.27C2617.18 810.652 2617.34 788.322 2617.34 751.277C2617.34 733.895 2617.18 724.487 2616.86 723.055C2616.14 720.516 2613.99 719.246 2610.41 719.246C2608.59 719.246 2605.89 719.409 2602.3 719.734ZM2730.62 781.355L2721.93 780.477C2723.82 771.232 2725.03 763.029 2725.55 755.867C2737.4 750.138 2749.77 747.273 2762.66 747.273C2770.14 747.273 2776.1 748.478 2780.53 750.887C2785.02 753.296 2788.11 756.583 2789.8 760.75C2791.5 764.917 2792.34 771.395 2792.34 780.184L2791.95 813.387C2791.95 819.702 2792.47 823.706 2793.52 825.398C2794.62 827.026 2796.05 827.84 2797.81 827.84C2799.9 827.84 2802.99 826.701 2807.09 824.422L2810.8 830.086C2801.95 836.336 2795.4 840.438 2791.17 842.391C2788.11 843.758 2785.18 844.441 2782.38 844.441C2778.67 844.441 2775.48 843.432 2772.81 841.414C2770.14 839.396 2768.32 836.401 2767.34 832.43C2759.53 837.833 2754.06 841.186 2750.94 842.488C2747.81 843.855 2744.04 844.539 2739.61 844.539C2732.9 844.539 2727.4 842.293 2723.11 837.801C2718.87 833.243 2716.76 827.189 2716.76 819.637C2716.76 814.298 2718.19 809.35 2721.05 804.793C2723.01 801.603 2726.62 798.543 2731.89 795.613L2767.34 778.816C2767.21 771.069 2765.98 765.861 2763.63 763.191C2761.35 760.522 2757.94 759.188 2753.38 759.188C2748.76 759.188 2744.72 760.717 2741.27 763.777C2737.88 766.772 2734.34 772.632 2730.62 781.355ZM2767.34 789.363C2756.6 794.376 2749.83 798.478 2747.03 801.668C2744.23 804.858 2742.83 809.025 2742.83 814.168C2742.83 819.441 2743.87 823.315 2745.96 825.789C2748.04 828.263 2750.74 829.5 2754.06 829.5C2756.6 829.5 2759.04 828.654 2761.39 826.961C2763.8 825.268 2765.39 822.892 2766.17 819.832C2767.02 816.707 2767.44 810.197 2767.44 800.301C2767.44 798.022 2767.41 794.376 2767.34 789.363ZM2830.62 781.355L2821.93 780.477C2823.82 771.232 2825.03 763.029 2825.55 755.867C2837.4 750.138 2849.77 747.273 2862.66 747.273C2870.14 747.273 2876.1 748.478 2880.53 750.887C2885.02 753.296 2888.11 756.583 2889.8 760.75C2891.5 764.917 2892.34 771.395 2892.34 780.184L2891.95 813.387C2891.95 819.702 2892.47 823.706 2893.52 825.398C2894.62 827.026 2896.05 827.84 2897.81 827.84C2899.9 827.84 2902.99 826.701 2907.09 824.422L2910.8 830.086C2901.95 836.336 2895.4 840.438 2891.17 842.391C2888.11 843.758 2885.18 844.441 2882.38 844.441C2878.67 844.441 2875.48 843.432 2872.81 841.414C2870.14 839.396 2868.32 836.401 2867.34 832.43C2859.53 837.833 2854.06 841.186 2850.94 842.488C2847.81 843.855 2844.04 844.539 2839.61 844.539C2832.9 844.539 2827.4 842.293 2823.11 837.801C2818.87 833.243 2816.76 827.189 2816.76 819.637C2816.76 814.298 2818.19 809.35 2821.05 804.793C2823.01 801.603 2826.62 798.543 2831.89 795.613L2867.34 778.816C2867.21 771.069 2865.98 765.861 2863.63 763.191C2861.35 760.522 2857.94 759.188 2853.38 759.188C2848.76 759.188 2844.72 760.717 2841.27 763.777C2837.88 766.772 2834.34 772.632 2830.62 781.355ZM2867.34 789.363C2856.6 794.376 2849.83 798.478 2847.03 801.668C2844.23 804.858 2842.83 809.025 2842.83 814.168C2842.83 819.441 2843.87 823.315 2845.96 825.789C2848.04 828.263 2850.74 829.5 2854.06 829.5C2856.6 829.5 2859.04 828.654 2861.39 826.961C2863.8 825.268 2865.39 822.892 2866.17 819.832C2867.02 816.707 2867.44 810.197 2867.44 800.301C2867.44 798.022 2867.41 794.376 2867.34 789.363ZM2911.29 767.293V760.262C2919.88 758.439 2927.01 756.518 2932.68 754.5C2938.4 752.482 2944.07 749.91 2949.67 746.785L2954.75 749.715C2953.83 754.663 2953.22 760.066 2952.89 765.926C2960.12 757.723 2965.55 752.579 2969.2 750.496C2972.85 748.348 2977.14 747.273 2982.09 747.273C2986.97 747.273 2991.17 748.217 2994.69 750.105C2998.27 751.993 3000.9 754.402 3002.6 757.332C3004.36 760.197 3005.49 764.07 3006.02 768.953C3006.34 772.013 3006.5 779.37 3006.5 791.023L3006.41 808.406C3006.41 819.604 3006.54 826.212 3006.8 828.23C3007.06 830.184 3007.68 831.616 3008.65 832.527C3009.69 833.374 3012.59 834.318 3017.34 835.359C3018.12 835.555 3019.36 835.848 3021.05 836.238V843.074C3010.18 842.358 3001.75 842 2995.76 842C2989.71 842 2980.79 842.358 2969 843.074V836.238C2974.02 835.001 2977.08 833.895 2978.18 832.918C2979.29 831.876 2979.97 830.184 2980.23 827.84C2980.62 824.585 2980.82 813.81 2980.82 795.516C2980.82 782.56 2980.27 774.747 2979.16 772.078C2977.34 767.846 2973.92 765.73 2968.91 765.73C2965.26 765.73 2961.91 767.033 2958.85 769.637C2955.85 772.241 2953.93 775.561 2953.09 779.598C2952.24 783.634 2951.82 792.521 2951.82 806.258C2951.82 818.562 2952.08 826.212 2952.6 829.207C2952.86 830.835 2953.44 832.039 2954.36 832.82C2955.27 833.536 2958.33 834.676 2963.54 836.238V843.074C2953.64 842.358 2945.37 842 2938.73 842C2932.55 842 2923.4 842.358 2911.29 843.074V836.238C2918.45 834.35 2922.49 832.983 2923.4 832.137C2924.38 831.29 2925.03 829.337 2925.35 826.277C2925.94 819.246 2926.23 810.132 2926.23 798.934C2926.23 781.811 2926.04 772.404 2925.64 770.711C2924.86 767.846 2922.88 766.414 2919.69 766.414C2917.67 766.414 2914.87 766.707 2911.29 767.293ZM3073.4 711.727V704.5C3085.05 705.216 3094.65 705.574 3102.21 705.574C3110.28 705.574 3119.04 705.216 3128.48 704.5C3131.21 711.922 3134.79 720.711 3139.22 730.867C3151.33 758.211 3162.04 781.421 3171.35 800.496L3195.96 747.371C3199.86 738.712 3202.96 731.616 3205.23 726.082C3207.58 720.483 3210.38 713.289 3213.63 704.5C3226 705.216 3234.99 705.574 3240.59 705.574C3245.4 705.574 3254.13 705.216 3266.76 704.5V711.727C3264.8 712.117 3263.34 712.378 3262.36 712.508C3253.96 713.94 3249.08 715.242 3247.71 716.414C3246.41 717.586 3245.57 720.027 3245.18 723.738C3244.85 727.384 3244.69 742.13 3244.69 767.977C3244.69 800.789 3244.72 817.911 3244.79 819.344C3244.98 824.487 3245.34 827.645 3245.86 828.816C3246.45 829.988 3247.16 830.835 3248.01 831.355C3250.29 832.658 3255.07 833.862 3262.36 834.969L3266.76 835.848V843.074C3251 842.358 3238.99 842 3230.72 842C3222.19 842 3209.6 842.358 3192.93 843.074V835.848C3203.22 833.96 3208.98 832.755 3210.21 832.234C3211.52 831.648 3212.49 830.9 3213.14 829.988C3213.8 829.077 3214.22 827.84 3214.41 826.277C3214.67 824.715 3214.8 818.042 3214.8 806.258C3214.93 780.672 3215 760.685 3215 746.297C3215 744.93 3214.97 740.665 3214.9 733.504C3211.32 740.926 3198.24 769.832 3175.64 820.223L3165.78 842H3158.26C3150.9 825.398 3134.34 789.005 3108.55 732.82C3108.42 741.349 3108.36 748.576 3108.36 754.5C3108.36 786.987 3108.65 808.471 3109.24 818.953C3109.56 824.943 3109.89 828.296 3110.21 829.012C3110.67 830.249 3111.65 831.258 3113.14 832.039C3114.64 832.82 3119.07 833.829 3126.43 835.066C3127.34 835.262 3128.67 835.522 3130.43 835.848V843.074C3121.18 842.358 3112.27 842 3103.67 842C3095.01 842 3085.15 842.358 3074.08 843.074V835.848C3082.55 834.35 3087.69 833.276 3089.51 832.625C3091.33 831.974 3092.7 830.9 3093.61 829.402C3094.52 827.905 3094.98 825.105 3094.98 821.004L3096.15 758.895C3096.35 748.022 3096.45 739.949 3096.45 734.676C3096.45 726.538 3096.02 721.199 3095.18 718.66C3094.65 717.098 3093.65 715.926 3092.15 715.145C3090.72 714.363 3086 713.452 3077.99 712.41C3076.95 712.28 3075.42 712.052 3073.4 711.727ZM3300.64 700.887C3305.01 700.887 3308.72 702.449 3311.78 705.574C3314.9 708.634 3316.46 712.345 3316.46 716.707C3316.46 721.069 3314.9 724.812 3311.78 727.938C3308.72 730.997 3305.01 732.527 3300.64 732.527C3296.28 732.527 3292.54 730.997 3289.41 727.938C3286.35 724.812 3284.82 721.069 3284.82 716.707C3284.82 712.345 3286.35 708.634 3289.41 705.574C3292.47 702.449 3296.22 700.887 3300.64 700.887ZM3272.32 766.512V759.48C3287.1 756.876 3299.86 752.352 3310.61 745.906L3315.59 748.543C3314.67 756.421 3314.09 763.452 3313.83 769.637C3313.37 778.816 3313.14 793.335 3313.14 813.191C3313.14 821.525 3313.44 826.831 3314.02 829.109C3314.41 830.607 3315.16 831.746 3316.27 832.527C3317.44 833.243 3321.35 834.48 3327.99 836.238V843.074C3318.94 842.358 3310.67 842 3303.18 842C3296.02 842 3285.57 842.358 3271.84 843.074V836.238L3274.38 835.652C3280.1 834.35 3283.49 833.243 3284.53 832.332C3285.57 831.355 3286.22 829.663 3286.48 827.254C3287.07 821.069 3287.36 808.309 3287.36 788.973C3287.36 777.775 3287.07 771.264 3286.48 769.441C3285.7 767.033 3283.85 765.828 3280.92 765.828C3278.38 765.828 3275.51 766.056 3272.32 766.512ZM3333.36 767.293V760.262C3341.95 758.439 3349.08 756.518 3354.75 754.5C3360.48 752.482 3366.14 749.91 3371.74 746.785L3376.82 749.715C3375.9 754.663 3375.29 760.066 3374.96 765.926C3382.19 757.723 3387.62 752.579 3391.27 750.496C3394.92 748.348 3399.21 747.273 3404.16 747.273C3409.04 747.273 3413.24 748.217 3416.76 750.105C3420.34 751.993 3422.98 754.402 3424.67 757.332C3426.43 760.197 3427.57 764.07 3428.09 768.953C3428.41 772.013 3428.57 779.37 3428.57 791.023L3428.48 808.406C3428.48 819.604 3428.61 826.212 3428.87 828.23C3429.13 830.184 3429.75 831.616 3430.72 832.527C3431.76 833.374 3434.66 834.318 3439.41 835.359C3440.2 835.555 3441.43 835.848 3443.12 836.238V843.074C3432.25 842.358 3423.82 842 3417.83 842C3411.78 842 3402.86 842.358 3391.07 843.074V836.238C3396.09 835.001 3399.15 833.895 3400.25 832.918C3401.36 831.876 3402.04 830.184 3402.3 827.84C3402.7 824.585 3402.89 813.81 3402.89 795.516C3402.89 782.56 3402.34 774.747 3401.23 772.078C3399.41 767.846 3395.99 765.73 3390.98 765.73C3387.33 765.73 3383.98 767.033 3380.92 769.637C3377.92 772.241 3376 775.561 3375.16 779.598C3374.31 783.634 3373.89 792.521 3373.89 806.258C3373.89 818.562 3374.15 826.212 3374.67 829.207C3374.93 830.835 3375.51 832.039 3376.43 832.82C3377.34 833.536 3380.4 834.676 3385.61 836.238V843.074C3375.71 842.358 3367.44 842 3360.8 842C3354.62 842 3345.47 842.358 3333.36 843.074V836.238C3340.52 834.35 3344.56 832.983 3345.47 832.137C3346.45 831.29 3347.1 829.337 3347.42 826.277C3348.01 819.246 3348.3 810.132 3348.3 798.934C3348.3 781.811 3348.11 772.404 3347.71 770.711C3346.93 767.846 3344.95 766.414 3341.76 766.414C3339.74 766.414 3336.94 766.707 3333.36 767.293ZM3475.84 700.887C3480.2 700.887 3483.91 702.449 3486.97 705.574C3490.1 708.634 3491.66 712.345 3491.66 716.707C3491.66 721.069 3490.1 724.812 3486.97 727.938C3483.91 730.997 3480.2 732.527 3475.84 732.527C3471.48 732.527 3467.73 730.997 3464.61 727.938C3461.55 724.812 3460.02 721.069 3460.02 716.707C3460.02 712.345 3461.55 708.634 3464.61 705.574C3467.67 702.449 3471.41 700.887 3475.84 700.887ZM3447.52 766.512V759.48C3462.3 756.876 3475.06 752.352 3485.8 745.906L3490.78 748.543C3489.87 756.421 3489.28 763.452 3489.02 769.637C3488.57 778.816 3488.34 793.335 3488.34 813.191C3488.34 821.525 3488.63 826.831 3489.22 829.109C3489.61 830.607 3490.36 831.746 3491.46 832.527C3492.64 833.243 3496.54 834.48 3503.18 836.238V843.074C3494.13 842.358 3485.87 842 3478.38 842C3471.22 842 3460.77 842.358 3447.03 843.074V836.238L3449.57 835.652C3455.3 834.35 3458.68 833.243 3459.73 832.332C3460.77 831.355 3461.42 829.663 3461.68 827.254C3462.27 821.069 3462.56 808.309 3462.56 788.973C3462.56 777.775 3462.27 771.264 3461.68 769.441C3460.9 767.033 3459.04 765.828 3456.11 765.828C3453.57 765.828 3450.71 766.056 3447.52 766.512Z" fill="#666666"/>
<path d="M1246.44 286.316V268.25C1275.58 270.04 1299.58 270.936 1318.46 270.936C1338.65 270.936 1360.54 270.04 1384.14 268.25C1390.97 286.805 1399.92 308.777 1410.99 334.168C1441.27 402.527 1468.04 460.551 1491.31 508.24L1552.84 375.428C1562.6 353.781 1570.33 336.04 1576.03 322.205C1581.89 308.208 1588.89 290.223 1597.03 268.25C1627.95 270.04 1650.41 270.936 1664.41 270.936C1676.45 270.936 1698.26 270.04 1729.84 268.25V286.316C1724.96 287.293 1721.29 287.944 1718.85 288.27C1697.86 291.85 1685.65 295.105 1682.23 298.035C1678.98 300.965 1676.86 307.068 1675.88 316.346C1675.07 325.46 1674.66 362.326 1674.66 426.941C1674.66 508.973 1674.75 551.779 1674.91 555.359C1675.4 568.217 1676.29 576.111 1677.59 579.041C1679.06 581.971 1680.85 584.087 1682.96 585.389C1688.66 588.644 1700.62 591.655 1718.85 594.422L1729.84 596.619V614.686C1690.45 612.895 1660.42 612 1639.75 612C1618.43 612 1586.94 612.895 1545.27 614.686V596.619C1570.99 591.899 1585.39 588.888 1588.48 587.586C1591.74 586.121 1594.18 584.249 1595.81 581.971C1597.43 579.692 1598.49 576.6 1598.98 572.693C1599.63 568.787 1599.96 552.104 1599.96 522.645C1600.28 458.68 1600.45 408.712 1600.45 372.742C1600.45 369.324 1600.36 358.663 1600.2 340.76C1591.25 359.314 1558.53 431.58 1502.06 557.557L1477.4 612H1458.6C1440.21 570.496 1398.79 479.513 1334.33 339.051C1334.01 360.372 1333.84 378.439 1333.84 393.25C1333.84 474.467 1334.58 528.178 1336.04 554.383C1336.85 569.357 1337.67 577.739 1338.48 579.529C1339.62 582.622 1342.06 585.145 1345.81 587.098C1349.55 589.051 1360.62 591.574 1379.01 594.666C1381.29 595.154 1384.62 595.805 1389.02 596.619V614.686C1365.91 612.895 1343.61 612 1322.12 612C1300.48 612 1275.82 612.895 1248.15 614.686V596.619C1269.31 592.876 1282.17 590.19 1286.72 588.562C1291.28 586.935 1294.7 584.249 1296.98 580.506C1299.26 576.762 1300.4 569.764 1300.4 559.51L1303.33 404.236C1303.81 377.055 1304.06 356.873 1304.06 343.689C1304.06 323.344 1303 309.998 1300.88 303.65C1299.58 299.744 1297.06 296.814 1293.32 294.861C1289.74 292.908 1277.94 290.63 1257.92 288.025C1255.31 287.7 1251.49 287.13 1246.44 286.316ZM1814.56 259.217C1825.46 259.217 1834.74 263.123 1842.39 270.936C1850.2 278.585 1854.11 287.863 1854.11 298.768C1854.11 309.673 1850.2 319.031 1842.39 326.844C1834.74 334.493 1825.46 338.318 1814.56 338.318C1803.65 338.318 1794.29 334.493 1786.48 326.844C1778.83 319.031 1775.01 309.673 1775.01 298.768C1775.01 287.863 1778.83 278.585 1786.48 270.936C1794.13 263.123 1803.49 259.217 1814.56 259.217ZM1743.76 423.279V405.701C1780.7 399.191 1812.6 387.879 1839.46 371.766L1851.91 378.357C1849.63 398.051 1848.17 415.63 1847.52 431.092C1846.38 454.041 1845.81 490.337 1845.81 539.979C1845.81 560.812 1846.54 574.077 1848 579.773C1848.98 583.517 1850.85 586.365 1853.62 588.318C1856.55 590.109 1866.31 593.201 1882.92 597.596V614.686C1860.29 612.895 1839.62 612 1820.9 612C1803 612 1776.88 612.895 1742.54 614.686V597.596L1748.88 596.131C1763.21 592.876 1771.67 590.109 1774.27 587.83C1776.88 585.389 1778.51 581.157 1779.16 575.135C1780.62 559.673 1781.35 527.771 1781.35 479.432C1781.35 451.437 1780.62 435.161 1779.16 430.604C1777.2 424.581 1772.56 421.57 1765.24 421.57C1758.89 421.57 1751.73 422.14 1743.76 423.279ZM1896.34 425.232V407.654C1917.83 403.097 1935.65 398.296 1949.81 393.25C1964.13 388.204 1978.29 381.775 1992.29 373.963L2004.99 381.287C2002.71 393.657 2001.16 407.166 2000.35 421.814C2018.41 401.307 2032 388.449 2041.12 383.24C2050.23 377.869 2060.98 375.184 2073.35 375.184C2085.55 375.184 2096.05 377.544 2104.84 382.264C2113.79 386.984 2120.38 393.006 2124.62 400.33C2129.01 407.492 2131.86 417.176 2133.16 429.383C2133.97 437.033 2134.38 455.424 2134.38 484.559L2134.14 528.016C2134.14 556.01 2134.46 572.531 2135.11 577.576C2135.76 582.459 2137.31 586.04 2139.75 588.318C2142.36 590.434 2149.6 592.794 2161.48 595.398C2163.43 595.887 2166.53 596.619 2170.76 597.596V614.686C2143.58 612.895 2122.5 612 2107.53 612C2092.39 612 2070.09 612.895 2040.63 614.686V597.596C2053.16 594.503 2060.81 591.736 2063.58 589.295C2066.35 586.691 2068.06 582.459 2068.71 576.6C2069.68 568.462 2070.17 541.525 2070.17 495.789C2070.17 463.4 2068.79 443.868 2066.02 437.195C2061.46 426.616 2052.92 421.326 2040.39 421.326C2031.27 421.326 2022.89 424.581 2015.24 431.092C2007.75 437.602 2002.95 445.903 2000.84 455.994C1998.72 466.085 1997.66 488.302 1997.66 522.645C1997.66 553.406 1998.31 572.531 1999.62 580.018C2000.27 584.087 2001.73 587.098 2004.01 589.051C2006.29 590.841 2013.94 593.689 2026.96 597.596V614.686C2002.22 612.895 1981.55 612 1964.95 612C1949.49 612 1926.62 612.895 1896.34 614.686V597.596C1914.25 592.876 1924.34 589.458 1926.62 587.342C1929.06 585.226 1930.69 580.343 1931.5 572.693C1932.96 555.115 1933.7 532.329 1933.7 504.334C1933.7 461.528 1933.21 438.009 1932.23 433.777C1930.28 426.616 1925.32 423.035 1917.34 423.035C1912.29 423.035 1905.3 423.768 1896.34 425.232ZM2252.54 259.217C2263.45 259.217 2272.73 263.123 2280.38 270.936C2288.19 278.585 2292.1 287.863 2292.1 298.768C2292.1 309.673 2288.19 319.031 2280.38 326.844C2272.73 334.493 2263.45 338.318 2252.54 338.318C2241.64 338.318 2232.28 334.493 2224.47 326.844C2216.82 319.031 2212.99 309.673 2212.99 298.768C2212.99 287.863 2216.82 278.585 2224.47 270.936C2232.12 263.123 2241.48 259.217 2252.54 259.217ZM2181.74 423.279V405.701C2218.69 399.191 2250.59 387.879 2277.45 371.766L2289.9 378.357C2287.62 398.051 2286.15 415.63 2285.5 431.092C2284.36 454.041 2283.79 490.337 2283.79 539.979C2283.79 560.812 2284.53 574.077 2285.99 579.773C2286.97 583.517 2288.84 586.365 2291.61 588.318C2294.54 590.109 2304.3 593.201 2320.9 597.596V614.686C2298.28 612.895 2277.61 612 2258.89 612C2240.99 612 2214.87 612.895 2180.52 614.686V597.596L2186.87 596.131C2201.19 592.876 2209.66 590.109 2212.26 587.83C2214.87 585.389 2216.49 581.157 2217.14 575.135C2218.61 559.673 2219.34 527.771 2219.34 479.432C2219.34 451.437 2218.61 435.161 2217.14 430.604C2215.19 424.581 2210.55 421.57 2203.23 421.57C2196.88 421.57 2189.72 422.14 2181.74 423.279ZM2459.09 286.316V268.25C2500.75 270.04 2533.23 270.936 2556.5 270.936C2580.26 270.936 2611.92 270.04 2651.47 268.25V286.316C2617.94 291.362 2599.71 294.617 2596.78 296.082C2591.9 298.849 2589.46 305.929 2589.46 317.322L2588.73 380.066V583.191H2677.59C2692.24 583.191 2702.01 582.215 2706.89 580.262C2713.56 577.495 2719.99 572.531 2726.18 565.369C2732.36 558.208 2743.27 541.606 2758.89 515.564H2780.87C2769.96 545.675 2759.3 578.715 2748.88 614.686C2679.71 612.895 2622.17 612 2576.28 612C2538.68 612 2499.62 612.895 2459.09 614.686V596.619C2488.06 590.923 2504.01 587.016 2506.94 584.9C2509.87 582.785 2511.66 578.878 2512.31 573.182C2513.12 567.322 2513.53 528.26 2513.53 455.994L2513.29 367.127V351.502C2513.29 325.46 2512.39 309.835 2510.6 304.627C2509.3 300.721 2507.02 298.035 2503.77 296.57C2500.67 294.943 2485.78 291.525 2459.09 286.316ZM2870.22 259.217C2881.13 259.217 2890.4 263.123 2898.05 270.936C2905.87 278.585 2909.77 287.863 2909.77 298.768C2909.77 309.673 2905.87 319.031 2898.05 326.844C2890.4 334.493 2881.13 338.318 2870.22 338.318C2859.32 338.318 2849.96 334.493 2842.14 326.844C2834.49 319.031 2830.67 309.673 2830.67 298.768C2830.67 287.863 2834.49 278.585 2842.14 270.936C2849.79 263.123 2859.15 259.217 2870.22 259.217ZM2799.42 423.279V405.701C2836.37 399.191 2868.27 387.879 2895.12 371.766L2907.57 378.357C2905.3 398.051 2903.83 415.63 2903.18 431.092C2902.04 454.041 2901.47 490.337 2901.47 539.979C2901.47 560.812 2902.2 574.077 2903.67 579.773C2904.64 583.517 2906.52 586.365 2909.28 588.318C2912.21 590.109 2921.98 593.201 2938.58 597.596V614.686C2915.96 612.895 2895.29 612 2876.57 612C2858.66 612 2832.54 612.895 2798.2 614.686V597.596L2804.55 596.131C2818.87 592.876 2827.33 590.109 2829.94 587.83C2832.54 585.389 2834.17 581.157 2834.82 575.135C2836.29 559.673 2837.02 527.771 2837.02 479.432C2837.02 451.437 2836.29 435.161 2834.82 430.604C2832.87 424.581 2828.23 421.57 2820.9 421.57C2814.56 421.57 2807.4 422.14 2799.42 423.279ZM2938.58 307.557V290.467C2970.64 283.468 3002.79 271.912 3035.02 255.799L3046.98 263.367C3042.58 293.803 3040.39 337.911 3040.39 395.691C3040.39 401.062 3040.47 408.956 3040.63 419.373C3060.81 399.679 3075.54 387.309 3084.82 382.264C3094.1 377.055 3104.03 374.451 3114.61 374.451C3135.28 374.451 3152.77 382.915 3167.1 399.842C3181.42 416.769 3188.58 441.915 3188.58 475.281C3188.58 518.087 3174.91 552.999 3147.56 580.018C3120.22 607.036 3085.06 620.545 3042.1 620.545C3021.1 620.545 2998.64 615.825 2974.71 606.385C2976.18 560.649 2976.91 504.09 2976.91 436.707C2976.91 361.512 2976.42 321.88 2975.45 317.811C2973.82 309.835 2968.53 305.848 2959.58 305.848C2955.51 305.848 2948.51 306.417 2938.58 307.557ZM3040.63 579.285C3052.19 585.47 3062.77 588.562 3072.37 588.562C3086.85 588.562 3097.92 583.517 3105.57 573.426C3116.48 559.103 3121.93 536.805 3121.93 506.531C3121.93 475.444 3116.64 452.169 3106.06 436.707C3099.06 426.779 3089.87 421.814 3078.47 421.814C3067.89 421.814 3058.94 426.535 3051.62 435.975C3044.29 445.252 3040.63 460.796 3040.63 482.605V579.285ZM3212.26 424.988V407.898C3252.63 399.109 3284.85 388.042 3308.94 374.695L3320.66 381.287C3317.89 398.377 3316.27 417.176 3315.78 437.684C3332.38 411.642 3344.59 395.61 3352.4 389.588C3360.37 383.566 3369.73 380.555 3380.47 380.555C3387.8 380.555 3395.86 382.508 3404.64 386.414C3399.6 406.759 3395.69 427.837 3392.93 449.646H3376.32C3375.51 443.136 3373.39 438.335 3369.98 435.242C3366.56 432.15 3362.49 430.604 3357.77 430.604C3350.61 430.604 3343.85 433.94 3337.51 440.613C3327.9 450.867 3321.23 463.481 3317.49 478.455C3315.53 486.105 3314.56 499.288 3314.56 518.006C3314.56 551.046 3314.88 570.089 3315.53 575.135C3316.18 580.18 3317.97 583.924 3320.9 586.365C3323.83 588.807 3332.87 591.736 3348 595.154C3350.12 595.643 3353.29 596.456 3357.53 597.596V614.686C3326.6 612.895 3301.62 612 3282.57 612C3262.07 612 3238.63 612.895 3212.26 614.686V597.596C3231.79 593.527 3242.86 588.969 3245.46 583.924C3249.21 576.925 3251.08 543.478 3251.08 483.582C3251.08 451.844 3249.86 433.859 3247.42 429.627C3244.98 425.232 3240.58 423.035 3234.23 423.035C3229.35 423.035 3222.03 423.686 3212.26 424.988ZM3453.47 460.389L3431.74 458.191C3436.46 435.079 3439.48 414.572 3440.78 396.668C3470.4 382.345 3501.32 375.184 3533.55 375.184C3552.27 375.184 3567.16 378.195 3578.23 384.217C3589.46 390.239 3597.19 398.458 3601.42 408.875C3605.65 419.292 3607.77 435.486 3607.77 457.459L3606.79 540.467C3606.79 556.255 3608.1 566.264 3610.7 570.496C3613.47 574.565 3617.05 576.6 3621.44 576.6C3626.65 576.6 3634.38 573.751 3644.63 568.055L3653.91 582.215C3631.78 597.84 3615.42 608.094 3604.84 612.977C3597.19 616.395 3589.87 618.104 3582.87 618.104C3573.59 618.104 3565.61 615.581 3558.94 610.535C3552.27 605.49 3547.71 598.003 3545.27 588.074C3525.74 601.583 3512.07 609.965 3504.25 613.221C3496.44 616.639 3487 618.348 3475.93 618.348C3459.17 618.348 3445.42 612.732 3434.67 601.502C3424.09 590.109 3418.8 574.972 3418.8 556.092C3418.8 542.745 3422.39 530.376 3429.55 518.982C3434.43 511.007 3443.46 503.357 3456.65 496.033L3545.27 454.041C3544.94 434.673 3541.85 421.652 3535.99 414.979C3530.3 408.305 3521.75 404.969 3510.36 404.969C3498.8 404.969 3488.71 408.794 3480.08 416.443C3471.62 423.93 3462.75 438.579 3453.47 460.389ZM3545.27 480.408C3518.41 492.941 3501.49 503.195 3494.49 511.17C3487.49 519.145 3483.99 529.562 3483.99 542.42C3483.99 555.604 3486.59 565.288 3491.8 571.473C3497.01 577.658 3503.77 580.75 3512.07 580.75C3518.41 580.75 3524.52 578.634 3530.38 574.402C3536.4 570.171 3540.39 564.23 3542.34 556.58C3544.46 548.768 3545.51 532.492 3545.51 507.752C3545.51 502.055 3545.43 492.941 3545.27 480.408ZM3654.64 424.988V407.898C3695.01 399.109 3727.24 388.042 3751.32 374.695L3763.04 381.287C3760.28 398.377 3758.65 417.176 3758.16 437.684C3774.76 411.642 3786.97 395.61 3794.78 389.588C3802.76 383.566 3812.12 380.555 3822.86 380.555C3830.18 380.555 3838.24 382.508 3847.03 386.414C3841.98 406.759 3838.08 427.837 3835.31 449.646H3818.71C3817.89 443.136 3815.78 438.335 3812.36 435.242C3808.94 432.15 3804.87 430.604 3800.15 430.604C3792.99 430.604 3786.24 433.94 3779.89 440.613C3770.29 450.867 3763.61 463.481 3759.87 478.455C3757.92 486.105 3756.94 499.288 3756.94 518.006C3756.94 551.046 3757.26 570.089 3757.92 575.135C3758.57 580.18 3760.36 583.924 3763.29 586.365C3766.22 588.807 3775.25 591.736 3790.39 595.154C3792.5 595.643 3795.68 596.456 3799.91 597.596V614.686C3768.98 612.895 3744 612 3724.96 612C3704.45 612 3681.01 612.895 3654.64 614.686V597.596C3674.18 593.527 3685.24 588.969 3687.85 583.924C3691.59 576.925 3693.46 543.478 3693.46 483.582C3693.46 451.844 3692.24 433.859 3689.8 429.627C3687.36 425.232 3682.96 423.035 3676.62 423.035C3671.73 423.035 3664.41 423.686 3654.64 424.988ZM3852.64 398.133V381.043C3882.26 382.833 3905.13 383.729 3921.25 383.729C3938.01 383.729 3960.15 382.833 3987.65 381.043V398.133C3985.05 398.621 3983.1 398.947 3981.79 399.109C3971.86 400.737 3965.76 402.527 3963.48 404.48C3961.2 406.271 3960.06 408.631 3960.06 411.561C3960.06 414.002 3961.77 419.373 3965.19 427.674L4001.81 518.982L4030.87 433.045C4033.96 423.768 4035.5 416.85 4035.5 412.293C4035.5 409.526 4034.45 407.166 4032.33 405.213C4030.21 403.097 4024.68 400.737 4015.73 398.133V381.043C4034.28 382.833 4049.5 383.729 4061.38 383.729C4074.24 383.729 4087.59 382.833 4101.42 381.043V398.133C4089.21 402.039 4081.32 405.457 4077.74 408.387C4074.16 411.316 4070.33 417.257 4066.27 426.209C4062.36 434.998 4049.99 467.794 4029.16 524.598C4002.95 596.212 3985.94 640.158 3978.13 656.434C3967.06 679.22 3955.1 695.008 3942.24 703.797C3929.38 712.586 3916.28 716.98 3902.94 716.98C3897.56 716.98 3890.16 716.085 3880.72 714.295C3877.3 701.437 3874.45 691.997 3872.17 685.975C3869.9 680.115 3865.99 671.57 3860.46 660.34L3874.13 651.551C3882.43 659.201 3889.43 664.327 3895.12 666.932C3900.82 669.536 3906.68 670.838 3912.7 670.838C3923.44 670.838 3933.13 666.932 3941.75 659.119C3950.54 651.307 3959.98 633.24 3970.07 604.92L3900.49 447.449C3891.87 427.592 3885.36 415.711 3880.96 411.805C3876.57 407.736 3867.13 403.178 3852.64 398.133Z" fill="black"/>
<defs>
<linearGradient id="paint0_linear_428_126" x1="514.561" y1="246.374" x2="734.129" y2="246.374" gradientUnits="userSpaceOnUse">
<stop stop-color="#2D0B74"/>
<stop offset="0.505208" stop-color="#6404BE"/>
<stop offset="1" stop-color="#B002B4"/>
</linearGradient>
<linearGradient id="paint1_linear_428_126" x1="588.029" y1="246.374" x2="368.46" y2="246.374" gradientUnits="userSpaceOnUse">
<stop stop-color="#2D0B74"/>
<stop offset="0.505208" stop-color="#6404BE"/>
<stop offset="1" stop-color="#B002B4"/>
</linearGradient>
<linearGradient id="paint2_linear_428_126" x1="500.705" y1="246.374" x2="810.536" y2="246.374" gradientUnits="userSpaceOnUse">
<stop stop-color="#2D0B74"/>
<stop offset="0.505208" stop-color="#6404BE"/>
<stop offset="1" stop-color="#B002B4"/>
</linearGradient>
<linearGradient id="paint3_linear_428_126" x1="604.824" y1="246.374" x2="294.993" y2="246.374" gradientUnits="userSpaceOnUse">
<stop stop-color="#2D0B74"/>
<stop offset="0.505208" stop-color="#6404BE"/>
<stop offset="1" stop-color="#B002B4"/>
</linearGradient>
<linearGradient id="paint4_linear_428_126" x1="722.147" y1="782.198" x2="690.083" y2="-159.545" gradientUnits="userSpaceOnUse">
<stop stop-color="#0025A7"/>
<stop offset="0.284144" stop-color="#6F04C4"/>
<stop offset="0.722726" stop-color="#443B90"/>
<stop offset="1" stop-color="#1700A7" stop-opacity="0"/>
<stop offset="1" stop-color="#1700A7"/>
</linearGradient>
<linearGradient id="paint5_linear_428_126" x1="303.84" y1="729.54" x2="853.005" y2="82.8981" gradientUnits="userSpaceOnUse">
<stop stop-color="#00C2FF" stop-opacity="0"/>
<stop offset="0.0001" stop-color="#330AAF" stop-opacity="0"/>
<stop offset="0.975219" stop-color="#121145" stop-opacity="0.16"/>
</linearGradient>
<linearGradient id="paint6_linear_428_126" x1="877.035" y1="603.493" x2="423.425" y2="695.869" gradientUnits="userSpaceOnUse">
<stop stop-color="#081A83"/>
<stop offset="0.0922252" stop-color="#5B0882" stop-opacity="0.863692"/>
<stop offset="1" stop-color="#FF00D6"/>
</linearGradient>
<linearGradient id="paint7_linear_428_126" x1="142.312" y1="887.479" x2="582.49" y2="538.8" gradientUnits="userSpaceOnUse">
<stop stop-color="#081A81"/>
<stop offset="1" stop-color="#2400FF"/>
</linearGradient>
<linearGradient id="paint8_linear_428_126" x1="883.546" y1="688.733" x2="397.207" y2="717.356" gradientUnits="userSpaceOnUse">
<stop stop-color="#210EAE"/>
<stop offset="0.0922252" stop-color="#730FA2" stop-opacity="0.863692"/>
<stop offset="1" stop-color="#FF0099"/>
</linearGradient>
<linearGradient id="paint9_linear_428_126" x1="98.9475" y1="881.004" x2="570.658" y2="576.334" gradientUnits="userSpaceOnUse">
<stop stop-color="#081A81"/>
<stop offset="1" stop-color="#2400FF"/>
</linearGradient>
<clipPath id="clip0_428_126">
<rect width="1125" height="1125" rx="562.5" fill="white"/>
</clipPath>
<clipPath id="clip1_428_126">
<rect width="186.822" height="186.822" rx="93.4112" transform="matrix(-0.707107 0.707107 0.707107 0.707107 553.395 114.69)" fill="white"/>
</clipPath>
</defs>
</svg>
